<?xml version="1.0" encoding="utf-8"?>
<!-- Generator: Adobe Illustrator 28.0.0, SVG Export Plug-In . SVG Version: 6.00 Build 0)  -->
<svg version="1.1" id="Capa_1" xmlns="http://www.w3.org/2000/svg" xmlns:xlink="http://www.w3.org/1999/xlink" x="0px" y="0px"
	 viewBox="0 0 450 470" style="enable-background:new 0 0 450 470;" xml:space="preserve">
<style type="text/css">
	.st0{fill:#FFFFFF;stroke:#FFFFFF;stroke-miterlimit:10;}
</style>
<path class="st0" d="M317.2,60.6c-4.8,4-5.8,13.6-2,19l2.2,3.3h-2.6c-1.5,0-3.6,0.9-4.8,1.9c-2,1.9-2,1.9,1.1,1.5
	c1.9-0.3,4.4-1.1,5.7-2.1l2.2-1.6l-2.7-3c-2.4-2.6-2.7-3.9-2.1-8.7c0.3-3.4,1.5-6.7,2.8-8.1c2.1-2.3,2.2-2.3,2.9,3.3
	c0.3,3.2,1.2,6.8,1.8,8.2c1.1,2.1,1.5,2.3,2.9,0.5c2-2.1,3.8-2.5,3.8-0.5c0,0.6,0.6,0.9,1.2,0.4c0.9-0.5,0.8-1.1-0.2-1.9
	c-1-0.8,0.1-1.1,3.1-1.1c5.9,0,7.8,3,6.1,9.1c-0.7,2.1-1,4.3-0.7,4.7c0.9,0.9-8.4,5-11.5,5c-1.5,0.1-4.1-0.8-6.2-1.8l-3.6-2l2.7,2.6
	c3.5,3.4,8.5,3.3,16-0.5c6.5-3.3,8.5-5.3,9.1-9.1c0.1-1.3,0.7-3.2,1.1-4c1.3-2.1-0.9-1.9-2.6,0.5c-1.3,1.6-1.7,1.4-2.9-1.9
	c-1.3-3.4-2-3.9-6.1-3.9c-2.6,0-6.1,0.9-7.7,1.9c-1.8,1-3.5,1.4-3.9,1c-0.3-0.4-1-3.5-1.3-6.9C320.4,59.3,319.7,58.6,317.2,60.6z
	 M343.2,80.1c-0.6,1.3-1.9,3.2-2.9,4c-1.5,1.4-1.7,1.3-1-0.8c0.7-2.1,3.6-5.5,4.6-5.5C344.1,77.8,343.8,78.8,343.2,80.1z"/>
<path class="st0" d="M265.2,69.6c0,3.7,0.3,6,0.8,5.3c0.4-0.9,0.9-3.3,0.9-5.3c0-2.1-0.4-4.4-0.9-5.3
	C265.6,63.6,265.2,66,265.2,69.6z"/>
<path class="st0" d="M242,66.1c0.8,0.4,1.8,0.3,2.1-0.1c0.4-0.4-0.2-0.8-1.5-0.6C241.5,65.4,241.1,65.7,242,66.1z"/>
<path class="st0" d="M250,66.6c1.6,0.6,3.4,1.6,4,2.1c0.7,0.5,0.2-0.1-0.9-1.4c-1.2-1.1-3-2.1-4-2C248,65.4,248.3,65.9,250,66.6z"/>
<path class="st0" d="M257.3,67.5c1.5,1.9,1.8,3.7,1.3,5.9c-0.7,2.8-0.4,3,0.8,1.8c2.4-2.5,1.9-5.4-1.2-7.9l-3-2.5L257.3,67.5z"/>
<path class="st0" d="M242.8,71.4l3.4,0.9l-3.3,1c-3.7,1-9.4,5-11.7,8.2c-1.1,1.5-2,1.6-4.7,0.5c-2.9-1.3-4.1-1-9.3,2.1
	c-9.8,5.8-14.6,6.8-21.1,4.4c-3.1-1.3-5.8-1.9-6.2-1.6c-0.2,0.4,1.6,1.3,4,2.1c2.5,0.8,4.5,2,4.5,2.6c0,0.8,1,1.3,2.4,1.3
	c1.2,0,5.2,0.9,8.5,2c3.6,1.1,8.2,1.8,10.5,1.4l4.4-0.6v6.4c0,6-0.1,6.2-2,4.3c-1.2-1.3-4-2.1-6.7-2.1c-4.6,0-4.7,0.1-4.5,3.8
	c0.2,3.2,0.8,3.9,3.9,4.5c2.5,0.5,5.3,2.8,8.4,6.7c2.6,3.2,3.9,4.7,3.1,3.3c-3-4.9-8.3-10.7-9.9-10.7c-1.7,0-4-2.4-4.5-4.8
	c-0.3-2,8.5-1.6,9.6,0.4c1.2,2.3,8.2,7.3,8.9,6.4c0.3-0.4-0.7-1.4-2.4-2.1c-2.6-1.4-2.9-2.3-2.9-8.3c0-3.7,0.8-8.7,1.7-11.2
	c0.9-2.4,1.6-4.7,1.6-5c-0.2-2.3,7.3-8.9,14.1-12.6l7.8-4.2l-5.6,0.1C240.4,70.5,240,70.8,242.8,71.4z M225.1,85.1
	c-2.2,2.6-2.5,5.4-0.7,7.4c1.8,2-4.8,3.4-11.1,2.1l-5.3-0.9l4.4-1.1c6.6-1.6,6.2-2.1-1.1-1.5l-6.6,0.6l6.6-3.2
	c3.6-1.8,7.2-3.8,7.7-4.4c0.7-0.8,2.7-1.4,4.6-1.4C226.8,82.9,226.8,83,225.1,85.1z M228.2,86.3c-0.2,1.3-0.4,2.5-0.4,2.8
	c-0.1,0.4-0.8-0.1-1.5-0.9c-1.1-1.3-1.1-1.9,0.2-2.8C228.7,83.9,228.7,83.8,228.2,86.3z"/>
<path class="st0" d="M266.8,76.5c-0.3,1,0.6,3,2,4.7c1.5,1.6,2.6,3.7,2.6,4.5s-1.3-0.1-2.9-2.1c-1.8-2.4-2.2-2.6-1.1-0.8
	c1.1,2.1,1.3,3.8,0.6,6c-1.3,3.9,0,13.9,1.5,11.5c0.8-1.1,0.9-0.9,0.6,1.1c-0.3,1.6-0.1,2.9,0.4,2.9c1.7,0,1.1-8.4-0.7-10.1
	c-0.9-0.9-1.7-2.3-1.7-3c0-0.8,0.6-0.5,1.1,0.5c0.9,1.4,1,0.9,0.6-1.9c-1-5.8,1-1.4,3.8,8.1c4.7,16.1,2,24.7-8.6,28.4
	c-3.3,1.1-4.3,1.9-2.7,1.9c1.3,0.1,4.3-0.6,6.4-1.6l3.8-1.8l1.6,5.3l1.6,5.3l-6.5-1.8c-3.6-1-6.4-2.1-6.2-2.6c0.2-0.4-0.9-0.9-2.5-1
	c-1.7,0-5.3-0.4-8.1-0.8c-2.8-0.3-6.4-0.6-8.1-0.8c-2-0.1-3.1-0.9-3.1-2c0-2.1,2.8-2.5,3.9-0.6c0.3,0.6,1.2,1.3,2,1.3
	c0.7,0-0.8-1.6-3.4-3.8l-4.5-3.8l1.5-6.6c0.9-3.7,1.5-8.6,1.5-11.1c-0.1-3.2-0.4-2.4-1.1,3.2c-1.3,10.2-1.9,11.2-2.2,3.8
	c-0.3-8.2-0.3-8.6-1.3-10.3c-1-1.8,0.9-3.4,2.6-2.3c0.7,0.4,1.1,0,1.1-1s1-2.8,2.2-4c2.1-2.1,2.2-2.1,2.2-0.1c0,1.1,0.4,1.9,1.1,1.4
	c0.6-0.4,0.7-1.6,0.3-2.6c-0.3-1.1-0.2-2.4,0.4-2.9c1.3-1,5.9-8.4,5.9-9.7c0-0.5-1.5,1.4-3.3,4c-3.4,5.2-9.1,11.6-9.1,10.2
	c0-0.4-1.1,0.5-2.6,2c-1.5,1.5-3.6,3.4-4.8,4.3c-2,1.4-2,1.5,0.6,1.3c2.6-0.3,2.8,0.1,2.6,6c0,3.5-0.6,7.9-1.2,9.7
	c-0.8,2.3-0.8,3.7-0.1,4.2c0.7,0.5,0.9,2.3,0.4,4.2c-0.6,3.2-0.4,3.2,1,1.1c1.6-2.1,4.1-2.9,4.1-1.3c-0.1,2.5-2,4-5.3,3.9
	c-3.4-0.1-3.5-0.3-2-2.8c0.9-1.4,1.7-3.2,1.7-3.9c-0.1-0.6-0.8,0.3-1.8,2.1c-1.6,3.5-1.7,3.5-13.2,3.3c-10.1-0.1-11.5-0.5-11.1-2.3
	c0.6-2.4-3.7-8.8-5.8-8.8c-1.9,0-10-11.1-10.1-14c-0.2-3.2-3.6-7.2-7.8-9.5c-1.8-1-4.8-2.8-6.7-4c-4.8-2.9-18.8-3.5-24.7-0.9
	c-2.5,1-3.3,1.6-1.7,1.3c14.9-3.5,25.2-1.3,31.9,7.1c2.2,2.8,4.4,4.8,4.7,4.4c0.4-0.4-0.2-1.9-1.3-3.3c-1.1-1.4-1.5-2.5-0.8-2.5
	c1.6,0,4.7,5,4.7,7.4c0,1,1.8,4.2,3.9,7.2c4.7,6.4,4.8,7.1,1.1,6c-3.8-1-6.2,1.4-6.1,6.3l0.2,3.9l0.7-4.4c0.8-5.2,3.7-6.4,7-3
	c3.7,3.8,2.2,11.8-2.2,11.8c-0.9,0-2.6-1-3.8-2.3c-2.1-2-2.2-2-0.9,0.6c3.1,6.9,10.2,3.8,10.2-4.7c0-2.5-0.7-5.3-1.3-6.3
	c-1.2-1.5-1.1-1.5,0.3-0.3c1,0.8,2.1,1.1,2.5,0.6c1.1-1.1,3.8,1.9,4.6,5c0.4,2.3,0.2,2.1-2.2-1c-3.5-4.7-3.3-3.8,2,8.2
	c4.1,9.5,4.6,11.5,4.4,17.9c-0.1,4.5-5.8,11.6-12.9,16.4c-4.4,2.9-4.9,3.5-2.6,2.9c5.8-1.4,2.7,2.3-3.3,4l-5.5,1.5l5-0.8
	c6.3-0.9,9.1-2.4,8.3-4.7c-0.3-1,0.3-2.1,1.6-2.5c1.2-0.5,3-1.9,4.1-3.3s2.9-2.5,4-2.5c1.7,0,1.8,0.5,0.7,4.4
	c-0.8,2.9-1.7,4.3-2.7,3.9c-0.8-0.4-1.5-0.3-1.5,0.3c0,1.4,10,4.3,11.3,3.4c0.6-0.5,1,0,1,0.9s-3.7,3.2-8.5,4.9
	c-6.6,2.6-9.4,3.2-12.6,2.3c-4.8-1.1-5.8-0.6-5.8,3.2c0,3.7-6.8,6.4-10.5,4.3c-4.1-2.4-6.3-5-6.3-7.9c0-3.5,1.9-5.4,6.6-6.4
	c6.2-1.4,4.7-2.4-3.6-2.5c-4.5,0-9.5-0.3-11.4-0.4c-1.8-0.1-5.7,0.1-8.5,0.5c-4.5,0.8-5.6,0.5-7.6-1.8c-2.9-3.3-3-5.8-0.3-8.3
	c1.5-1.5,1.8-3.4,1.5-8.6c-0.3-4.8-0.7-5.9-1.3-4c-1.2,3.7-1.2-4.9,0-11.2c0.7-3.3,0.7-4.4-0.1-3.5c-3,3.4-3.4,12.9-0.7,20.8
	c1,2.8,0.8,3.9-0.7,5.8c-1,1.1-1.8,3.4-1.8,4.8s-0.9,3.5-2.1,4.7c-1.9,1.9-2.1,1.9-2.8,0.1c-0.3-1.1-0.7-3.4-0.7-5
	c0-1.6-0.6-3.4-1.2-3.9c-1.1-0.8-0.9,3,0.8,9.6c0.2,1.3-2.8,5.3-8.1,10.6C116,196.2,99.3,221,89.9,243.2c-5.8,13.7-5.9,16.3-0.2,3.4
	c8.4-18.7,19.7-38.7,21.1-37.2c0.3,0.4-1.1,3.4-3.3,6.7c-3.9,6-6.3,10.5-5.2,9.2c0.3-0.4,3.8-5.4,7.6-11.1c3.8-5.8,8.9-13,11.2-15.9
	c2.4-2.9,4.3-6.3,4.1-7.7c-0.1-1.6,0.4-2.5,1.7-2.4c1.1,0.1,1.7-0.4,1.2-1.1c-0.3-0.8-0.1-0.9,0.6-0.4c0.9,0.6,1.1,0.1,0.6-1.3
	c-0.6-1.8-0.3-2,1.3-1.3c1.2,0.5,1.8,0.5,1.3,0c-0.9-1,8-11.8,9.6-11.8c0.6,0,0.3,1-0.4,2.1c-1.3,1.8-1.3,2,0,1
	c1.1-0.6,1.3-0.5,0.8,0.5c-0.4,0.8-1.2,1.1-1.8,0.8c-0.4-0.4-2.1,0.5-3.5,1.9c-1.5,1.4-2.2,2.4-1.7,2.5c0.6,0,0.1,1.1-1,2.5
	s-2.6,2.1-3.3,1.6c-0.7-0.4-0.9-0.4-0.4,0.1c0.4,0.5-2.6,5.7-6.5,11.2c-7.8,11.1-15,25.8-15,30.6c0,1.6,0.9,3.7,2.1,4.5
	c1.9,1.3,1.2,2.1-6.5,8.7c-23.2,19.9-34.3,32.4-35.5,39.7c-0.8,5.2,2.6,21.3,6.3,30c1.2,2.8,2,4,1.6,2.6c-0.3-1.4-0.8-6.8-1-12
	l-0.4-9.5l1.1,7.6c1.7,11.2,3.3,16.9,2.4,8.2c-0.3-3.8-0.7-14.5-0.7-23.7c0-16.5,0-16.8,2.9-19.5c18.8-17.8,27.9-25.8,37.9-33.4
	c15.8-11.8,37-25.6,38.1-24.8c0.6,0.4,1.3-0.1,1.9-1.1c2.4-4.5,45.1-25.2,72.6-35.2c17.4-6.3,47.1-13.4,69.5-16.6
	c5.3-0.8,5.5-0.8,3.4,1.1c-1.6,1.5-0.8,1.3,2.8-0.5c2.8-1.4,6.3-2.5,7.8-2.5c4.6,0,14,5.7,17.4,10.6c3.7,5.5,7.3,18.1,7.2,25.1
	c-0.1,5-0.2,5-1.1-1.6c-0.9-7.3-4-16.5-7.1-20.8c-1-1.4-0.1,1.1,1.8,5.7c3,6.8,3.7,10.1,4,19c0.6,13.2-1.2,20.3-7.5,29.7
	c-2.5,3.5-4,6.9-3.7,7.4c0.4,0.5-0.1,0.5-1.1,0.1c-1-0.4-3.5-0.3-5.5,0.4c-7.4,2.4-15-2.4-19.4-12.2c-2.4-5.3-2.2-8.4,0.1-3.5
	c2.8,5.9,7.2,12,9.8,13.5c1.3,0.9,0.6-0.9-2.2-4.4c-5.6-7.2-7.7-13.6-5-15.9c1.2-1,1.3-1.3,0.1-0.5c-0.9,0.5,0-1,2-3.3
	c1.9-2.3,3.6-5,3.6-6.2c0-1.3-0.9-0.5-2.4,2.1c-1.8,3.3-2.8,4-4.7,3.4c-1.3-0.4-2.9-0.8-3.5-0.8s-0.7-3.9-0.4-8.6
	c0.7-10.6,4.6-20.7,10.5-27.4c2.9-3.3,3.4-4.3,1.6-3c-8.4,5.9-13.9,20.8-13.9,37.7c0,9.8-1.3,9.2-1.7-0.8c-0.1-2.9-0.8-4.2-2.5-4.7
	c-3-0.9-3.7,1.4-2.9,10.2c0.6,5.8,0.4,6.4-0.4,3.4c-1.6-5.3-0.3-19.4,2.5-27.7c1.2-3.8,4-10,6.3-13.6c3.8-6.4,3.8-6.6,0.6-3
	c-1.8,2-5,7.7-7.1,12.6c-3.6,8.6-3.8,9.8-3.8,22.3c0.1,14.9,2.1,21.8,8.9,29.2c12,13.5,32.8,7.6,41.7-11.8c5-11.2,5.6-31.3,1-43.4
	c-1.6-4.2-1.6-4.5,0.2-3.7c1.1,0.4,8.1,1.6,15.5,2.5c7.4,1,15.2,2.4,17.4,3.2c4.8,1.5,5.5,1.5,3.4,0c-2.1-1.6,1.2-0.9,14.6,3.4
	c13.6,4.3,20.6,8.4,28.1,16.8c7.4,8.2,8.7,8.3,2.6,0.3c-5.6-7.4-13-12.9-22.9-16.9l-8.4-3.4h6.2c8.4-0.1,24.6,2,34.8,4.4
	c6.7,1.6,8,2.3,5.9,3.2c-1.3,0.5-3.3,2.4-4.1,4c-2.9,4.9-6.3,22.1-6.1,31l0.1,8.3l0.8-7.6c0.6-5.7,0.8-6.4,1-3.2l0.3,4.4l1.1-4.9
	c0.9-3.5,0.8-5-0.1-5.7c-3-2.1,3.9-26.3,7.2-24.8c0.9,0.4,1.7,0.1,1.7-0.5c0-0.8,0.6-1.3,1.2-1.3c0.6,0,0.8,0.5,0.4,1.3
	c-0.3,0.8,0.1,0.9,1,0.5c1-0.4,1.8-0.3,1.8,0.5c0,0.6-1,1.5-2.2,1.9c-2.9,0.9-6.3,9.3-8.5,21.8c-2.9,15.6-0.7,29.6,4.9,30.5
	c1.5,0.3,3.4-0.3,4.3-1c2-2,2-0.8-0.1,3.8c-0.9,2-1.3,4.5-1,5.5c0.4,1.5,0,2-1.8,2c-2.1,0-2.2-0.3-1.1-1.9c1.2-1.6,1.1-1.8-0.4-1.1
	c-1.9,0.9-2.6,4.3-0.7,4.3c0.6,0,0.8,0.9,0.4,1.9c-1,2.8-2.7,2.3-2.7-0.6c0-4.5-3.9-7.6-10-7.6c-4.9,0-5.5,0.3-6.2,3.3
	c-0.7,2.9-1.1,3.2-4.9,2.5c-7.6-1.4-30.9-3.3-41.6-3.3h-10.4l0.8-9.8c0.4-5.3,1.2-10.7,1.8-12c0.7-1.3,0.7-2.1,0-2.1
	c-1.6,0-2.5,3.5-3.1,14.1l-0.7,9.8h-9.9c-8.1,0-10-0.4-10-1.9c0-1-1-3-2.4-4.5c-2-2.3-3.1-2.5-7.5-1.8c-4.8,0.8-5,0.8-3.5-1.4
	c1.3-2,1.3-2.1-0.1-1.1c-0.9,0.5-2.7,1.9-3.9,3c-1.5,1.3-1.8,1.4-0.8,0.1c0.7-1,1.3-2.4,1.3-3.2c0-0.6-1.2,0.4-2.7,2.5
	c-1.5,2-2.5,4.2-2.1,4.8c0.8,1.5,2.7-0.4,1.9-2c-0.6-1-0.4-1.1,0.4-0.3c1.6,1.6,0.4,6.9-1.5,6.9c-3.8,0-36.4,5.3-40.1,6.6
	c-6.8,2.3-3.9,2.5,6.6,0.5c10.5-2,35.3-4.8,36-4c0.3,0.3-0.7,4.4-2,9.1c-1.3,4.8-2.6,9.3-2.7,10c-0.2,0.8-6.4,2-13.9,2.9
	c-12.7,1.5-22,3.8-16.6,3.9c1.1,0.1,8.2-0.8,15.6-1.9c10.1-1.4,13.8-1.5,14.9-0.5c0.9,0.9,3.1,1.1,5.3,0.8l3.7-0.8l-3.1,1.4
	c-2.4,1-4,1-6.1,0c-2.1-1.1-2.7-1.1-2.4,0.1c0.8,2.5,11.5,2.1,11.5-0.3c0.1-1,0.8-3.3,1.6-5c1.3-3.2,1.3-3.2-0.7-0.6
	c-2.2,2.8-11.4,4-9.3,1.3c2.4-3.3,7.1-21.3,5.9-23.2c-0.6-1.1-0.8-3.4-0.3-5.2c0.6-2.8,1.1-3,6.7-2.6c3.4,0.1,6.5,0.6,7,0.9
	c2.2,1.6,0.6,10.5-4.1,21.7c-5.3,12.6-6.1,15.1-3.3,11c1.6-2.4,3-2.5,43.4-2.6l41.7-0.1l3.7-7.9c3.9-8.8,4.5-12.6,1.8-12.6
	c-1.2,0-1.6-0.6-1.1-2c0.3-1.1,0.7-2.3,0.7-2.5c0-1,8.1-0.5,10.2,0.8c1.2,0.8,2.1,2.6,2.1,4.4c0,3.7-3.8,11.1-4.9,9.8
	c-0.4-0.5-0.4,0.1,0,1.4c0.6,1.6,0.4,2.1-0.3,1.6c-1.5-1-3.9,2-3.5,4.3c0.2,1-0.4,1.6-1.6,1.4c-1-0.1-2.1,0.3-2.6,0.9
	c-0.3,0.8-1.3,1-2.2,0.5c-0.9-0.4-1.7,0-1.7,0.6c0,0.8,0.9,1.6,2,2c1,0.4,0,0.4-2.4,0.1c-3.7-0.4-4.1-0.3-3,1.3c0.8,1,2.2,1.9,3.3,2
	c1,0.1-1,1.1-4.5,2.4c-4.6,1.6-11.5,2.5-25.8,3c-32.7,1.4-83.5,4.4-105.5,6.4c-9.1,0.9-13.8-1.3-16-7.3c-0.8-2.3-3-13-4.9-24.1
	c-4.7-26.2-7.8-33.3-17.4-38.8c-5.8-3.3-18-2.6-24.8,1.3c-17.5,10.2-25,34.4-23.7,76l0.6,19.7l-12.6,1.4c-7,0.8-19.6,3.2-28.1,5.2
	c-8.6,2.1-16,3.5-16.6,2.9c-0.4-0.5-1.1-6.6-1.5-13.5c-1.2-21.9-4.1-33.3-9.8-37.7c-3.6-2.9-12.3-2.5-17.7,0.5
	c-5.7,3.3-11.7,12.5-13.9,21.6c-2,7.7-2.4,24.5-0.8,31.4c2.7,11.6,2.7,11.3-0.8,11.3c-4.3,0-5.2-1.1-2.9-3.9
	c1.1-1.4,1.6-3.9,1.3-7.1c-0.3-4.7-0.4-4.8-4.8-4.7c-2.4,0.1-4.6,0.8-4.8,1.5c-0.2,0.8-1.1,1-2.1,0.6c-2.4-1-4.8,2.9-4.8,7.9
	c0,2.9,0.8,4.5,2.8,6c2.8,2.1,8.4,2.8,8.4,1c0-0.6-1.7-0.9-3.7-0.8l-3.6,0.4l3.7-1c2.7-0.8,4.7-0.6,6.7,0.6c3.6,2.1,8.1,2.3,8.1,0.4
	c0-0.8,1.7,1.4,3.7,4.7l3.7,6.2l-6.1,4.5c-3.4,2.5-5.4,4.9-4.7,5.2c0.8,0.3-3.1,4-8.9,8.4c-5.6,4.3-10.2,8.1-10.2,8.4
	c0,0.4,2.2-1.1,4.9-3.3c5.3-4,7-4.7,5.6-2.3c-0.4,0.9-0.3,1,0.6,0.5c0.7-0.5,1-1.4,0.7-2c-0.3-0.6,0.3-1.8,1.6-2.4
	c2.9-1.8,3.8-1.8,2.8,0c-1,1.9,5.7-2.5,8.6-5.5c1.1-1.3,2.1-1.9,2.1-1.5c0,0.5,2.7-0.9,5.9-3c6.7-4.3,13.2-7.3,11.3-5.3
	c-0.6,0.8-4.4,3.4-8.4,5.8c-3.9,2.4-6.7,4.4-6.3,4.4c0.4,0,2.5-0.9,4.3-2c1.9-1,4.8-2.1,6.4-2.4c1.7-0.1,3.5-0.4,3.9-0.5
	c0.6,0,0.6-0.8,0.1-1.5c-0.4-0.9,0-1.1,1.5-0.6c3.9,1.4,21.4-10.1,19.2-12.5c-0.3-0.4-2.2,0.8-4.1,2.5c-1.9,1.9-3.5,2.8-3.5,2
	c0-1-0.7-1.1-2.1-0.1c-1.5,0.9-3.1,0.9-5.2,0c-1.7-0.8-3.5-0.9-4.1-0.5c-0.6,0.5-0.2-0.8,0.9-2.6c1-1.8,2.9-6.3,4-9.8
	c1.9-6.2,2-6.3,1.3-1.5c-0.3,2.6-1.5,6.7-2.4,8.8l-1.8,3.8l2.5-2.4c2.5-2.5,2.5-2.5,1.7,0c-0.8,2.4-0.8,2.4,1.7,0
	c2.5-2.5,2.5-2.5,1.6,0c-0.8,2.3-0.7,2.3,2.2,0.1c1.7-1.1,3-1.9,3-1.4c0,0.5,0.7,0.1,1.6-0.6c1.1-1,1.8-1.1,2.4-0.1
	c0.3,0.8,1.1,1,1.8,0.6c2-1.4,27.4-4.2,27.7-3c0.2,0.6,1.2,2.3,2.4,3.8c1.6,2.3,2.4,2.5,4.4,1.3c1.2-0.8,3-1.4,3.8-1.4
	c0.8,0.1,0,0.9-1.9,1.9c-1.8,0.9-2.6,1.8-1.6,1.8c1,0.1,1.8,1,1.8,2c0,1.4-0.7,1.6-2.2,1.1c-1.6-0.5-1.9-0.4-1.3,0.9
	c0.7,1.1,0.3,1.4-1,0.8c-1.2-0.6-3.1,0.1-4.9,1.9c-1.9,1.6-2.2,2.4-1,1.9c1.1-0.5,2.6-0.9,3.1-0.9c0.7,0,0.8-0.6,0.3-1.5
	c-0.6-0.9-0.2-1.1,0.9-0.8c1.6,0.8,15.8-3.3,22.2-6.3c1.6-0.6,4-2.8,5.6-4.5l2.7-3.4l1.5,2.9c0.8,1.6,1.3,3.5,1.5,4.3
	c0,0.9-4.9,3.7-10.9,6.3c-12.1,5.2-15.9,7.7-7.6,4.9c2.9-1,5.6-1.6,6.1-1.4c0.3,0.3,4.3-0.5,8.5-1.8c5.6-1.6,7.1-2.4,5-2.8
	c-1.6-0.3,0.7-0.5,4.8-0.5c4.1-0.1,7.4,0,7.2,0.3c-0.2,0.3-2.4,1.4-4.8,2.4c-4,1.8-4.1,1.9-0.7,1.1c6.5-1.3,3.7,0.6-3.1,2.1
	c-3.7,0.8-6.6,1.6-6.4,1.9c0.2,0.4,5.4,0,11.5-0.8c6.1-0.8,18.8-2.1,28.3-3c20.2-2.1,24.2-3.9,33.9-14.5
	c7.2-7.8,12.9-18.3,16.4-29.6c1.9-6.3,2.8-7.7,5.6-8.6c7.8-2.4,53.9-8.1,55-6.8c0.2,0.3,1.1,4.2,2,8.7c2.6,13.7,8.3,23.6,13.9,23.7
	c1.9,0,0,1.1-4.9,3c-8.9,3.5-10.1,3.5,17.4-0.6c16.8-2.5,19.4-3.3,27.6-7.9c11.7-6.7,19.8-20,24.9-40.5c1.9-7.8,2.4-8.7,6.5-10.7
	c2.4-1.3,5-3.3,5.9-4.4c2.2-3,0.3-8.6-3.3-9.6c-3.6-1-4.3-4.5-1-5.4c1.9-0.6,2.2-1.1,1.2-2.4c-0.9-1.4-0.6-3.3,1.5-7.9
	c6.8-16.1,8.2-39.4,3-50.7c-4.6-10-17.2-14.1-47.3-15.5c-10.8-0.5-24.1-1.6-29.7-2.4c-5.5-0.8-14.6-1.8-20.1-2.1
	c-9.9-0.8-10-0.8-15.2-6.3c-5.5-5.8-13.5-10.5-17.7-10.6c-1.3,0-4.5-1.1-6.8-2.5c-3.6-2-29.1-11.3-31.2-11.3c-0.3,0,1.7-3,4.4-6.7
	c6.5-8.6,12.1-17.3,12.1-18.9c0-0.8-1.3,1-3,3.9c-1.8,2.8-5.6,8.4-8.7,12.4l-5.5,7.2l-1.5-3.7c-2.1-5.7-1.9-6.4,4.5-11.8
	c3.1-2.9,7.5-6.9,9.5-9.1c1.9-2.1,3.6-3.2,3.6-2.3s0.3,1.3,0.7,0.9c0.9-0.9-1.6-4.7-2.9-4.7c-0.6,0-1.3,1.5-2,3.4
	c-0.6,2-3.4,5.4-6.2,7.7l-5.2,4l0.1-4c0.4-14-2.4-27.6-6.8-33.1c-1.1-1.4-2.4-3.4-2.6-4.4C267.3,75.1,267.2,74.9,266.8,76.5z
	 M273.6,91.1c0,0.6-0.6,0.4-1.1-0.6s-1.1-2.5-1.1-3.2c0-0.8,0.6-0.4,1.1,0.6S273.6,90.3,273.6,91.1z M238.9,116.4
	c0,1-0.4,1.5-1.1,1.1c-0.6-0.4-1.1-1.3-1.1-2c0-0.6,0.6-1.1,1.1-1.1C238.4,114.4,238.9,115.3,238.9,116.4z M214.2,128.8
	c0,1,0.3,2.8,0.7,3.8c1.1,3.4-2.5,1-3.8-2.5c-1.1-2.6-1-3,0.9-3C213.2,127,214.2,127.7,214.2,128.8z M235.5,129.1
	c-1.6,0.4-3.3,1.1-3.9,1.9c-0.8,0.9-0.3,1,1.5,0.4c1.5-0.5,3.9-0.5,5.6,0c2.9,0.8,2.9,0.9,0.9,2.6c-2.5,2-1,2.4,1.6,0.5
	c1.5-1.1,1.3-1.5-0.4-3.2c-2.2-1.9-2.2-1.9,0-1.9c3.1,0,23.1,4.4,34.5,7.7c6.8,1.9,9.4,3.2,8,3.7c-1.7,0.6-1.3,1,1.7,1.6
	c2,0.5,3.9,0.6,4.3,0.3s-0.3-0.6-1.5-0.6c-1.1,0-1.8-0.4-1.5-0.8c0.9-0.9,23,6.8,23.8,8.2c0.3,0.6-3.3,1.5-8.1,2
	c-4.7,0.5-14.1,2-20.9,3.3c-6.8,1.3-12.4,2.1-12.7,1.9c-0.7-0.8,2.1-8.3,3-8.3c2,0,2.2,2.4,0.3,3.7c-1.1,0.8-1.5,1.3-0.9,1.4
	c0.7,0,1.9-0.6,2.8-1.3c1.5-1.1,1.3-1.6-1-3.8c-2.7-2.5-5.3-3.4-4.1-1.4c0.8,1.4-2.7,11.5-4,11.5c-0.4,0-0.9-0.5-0.9-1.3
	c0-1.9-6.2-5-9.8-5c-4.5,0-13.2,3.3-13,4.8c0.4,2.5-3.1,0.6-7-3.5c-3.3-3.5-3.7-4.5-2.6-6.8c1.6-3.2,2.1-8.6,0.9-7.7
	c-0.4,0.4-1.2,2.6-1.7,5.2l-0.7,4.7l-3.3-4.3c-1.7-2.4-2.9-4.7-2.6-5.3c0.2-0.5-0.2-0.9-1.2-0.9c-0.9,0-2.9-1.8-4.6-4
	c-3.9-5.3-2.6-6,10.1-5.8C233.8,128.5,237.1,128.9,235.5,129.1z M228.9,149.9l12.8,14.6l-4.9,0.8c-2.7,0.4-7.2,0.8-9.9,0.8
	c-4.3,0-5-0.4-5.9-3.3c-0.7-1.8-1.1-3.5-1.1-3.9c0-1.5,9.8,1.1,12.7,3.5c5.2,4.3,3.5-0.1-3.6-9.2c-3.6-4.7-7-8.1-7.5-7.6
	c-0.4,0.5-0.6,0.3-0.1-0.5c0.7-1.4-4.9-8.1-7-8.1c-0.7,0-1.2-0.5-1.2-1.1C213.1,132.9,217.1,136.4,228.9,149.9z M220.9,146.7
	c6.2,8.6,6.4,11.5,0.8,10c-2.1-0.6-3.3-2.1-4.3-5.4c-0.7-2.6-1.7-5.2-2.2-5.9c-0.9-1-1.5-6.9-0.7-6.9
	C214.8,138.3,217.6,142.1,220.9,146.7z M216.6,154.1c0.3-0.4,1.6,2.6,2.7,6.7l1.9,7.4l4.7-0.4c4-0.5,4.3-0.4,1.9,0.8
	c-1.6,0.8-3.5,1-4.3,0.8c-0.8-0.4-1.5,0-1.6,0.9c0,0.9-0.8-0.3-1.6-2.3c-0.9-2.1-1.6-3-1.7-2.3c0,1.6-4.6,2.3-5.8,0.9
	c-0.7-0.8,0.8-7.9,1.9-9.2c0.3-0.4,1.2,0.1,1.8,1.1c1,1.5,1.1,1.6,0.8,0.1s-2.8-3.7-5.2-4.7c-0.1-0.1,0.1-1.1,0.4-2.4
	c0.7-2,0.9-1.9,2.1,0.5C215.4,153.6,216.2,154.5,216.6,154.1z M258.9,155.9c0.9,0.6-0.3,0.9-3.5,0.5c-3.5-0.5-6.2,0-8.6,1.5
	c-4.8,2.8-3.8,3.7,1.5,1.3c2.9-1.4,5.2-1.6,7.7-0.9c3.6,1.1,3.6,1.1-2.7,2.8c-7.2,1.8-12.4,1-11.5-1.9
	C243,155.6,255.2,153.2,258.9,155.9z M229.3,157.2c0.3,0.6-0.1,1.3-1,1.3c-1,0-1.8-0.6-1.8-1.3c0-0.8,0.4-1.3,1-1.3
	C228.2,156,229,156.5,229.3,157.2z M149.6,168.7c-0.3,0.6-1.1,0.9-1.7,0.4c-0.6-0.4-0.8-1.3-0.3-1.9c0.3-0.6,1.1-0.9,1.7-0.4
	C149.9,167.2,150.1,168.1,149.6,168.7z M172.7,180.3c0,7.9,0.3,10,1.8,10.6s0.7,1.5-3,3.7c-2.7,1.6-5.3,2.9-5.7,3
	c-1,0-1.2-28.2-0.2-29.2c0.3-0.4,2-0.1,3.9,0.6C172.7,170.3,172.7,170.5,172.7,180.3z M147.4,169.7c0.3,0.6-0.6,2-2,3.2
	c-1.8,1.3-2.7,1.4-2.5,0.4C143.4,169.3,146.1,167.3,147.4,169.7z M163.1,184.7c0,7.7-0.3,14.2-0.6,14.5s-6.5,4.3-13.9,9.1
	c-7.4,4.8-17.9,12-23.4,16c-13.9,10.1-16.7,9.6-13.1-2.3c3.6-11.8,15.7-29.5,29.3-42.7c9.1-8.8,9.2-8.9,15.5-8.8h6.4L163.1,184.7z
	 M177.2,170.3c0,0.3-0.8,1.1-1.7,2c-1.3,1.3-1.7,1.3-1.7-0.5c0-1.1,0.8-2,1.7-2C176.4,169.8,177.2,170.1,177.2,170.3z M197.5,181.4
	c-3.1,1.3-4,0.6-3-2.1c0.6-1.6,1.1-1.8,3.1-0.5l2.5,1.5L197.5,181.4z M178.8,189.3c-3.5,1.3-3.7,1-4.6-4.7l-0.7-4.5l4.1,4l4,4
	L178.8,189.3z M444.7,190c0.8,2.4,1.5,7.4,1.5,11.1c0.1,6.3,0,6.6-2.1,5c-1.8-1.3-2.5-1.3-3.6,0.1c-1.2,1.5-1.1,1.6,0.6,1
	c2.8-1.1,4.7,1.4,4.9,6.7c0.2,3.5,0.1,3.9-0.7,1.9c-0.8-1.8-1.1-1.9-1.1-0.6c-0.1,1-0.4,3.3-0.7,5c-0.6,2.8-0.4,2.9,0.6,0.6
	c0.9-2,1-1.9,0.4,1.3c-0.4,2-0.9,5.3-1,7.3c-0.1,1.9-0.6,3.8-1.1,4.4c-0.4,0.5-0.4-0.5,0-2.3l0.8-3.2l-2.4,3.4
	c-3.8,5.3-6.7,4.3-8.4-2.8c-0.7-2.5-0.6-2.8,0.4-1.3s1.1,1.3,0.4-1.3c-1-3.9-0.7-9.7,0.7-12.6c0.7-1.3,1.1-3.4,1-4.7
	c0-1.8-0.3-1.5-1.2,0.9c-0.7,1.9-1.3,2.5-1.7,1.5c-0.3-0.9-0.2-2.5,0.2-3.8c0.4-1.1,1-3.9,1.2-6.2c0.1-2.1,1.5-6.9,2.8-10.5
	C439.3,183.5,442.5,183,444.7,190z M118.2,200.1c-3.5,4.9-6.6,8.6-7,8.2c-0.6-0.6,1.3-3.4,8.6-12.4
	C126,188.8,125.3,190.4,118.2,200.1z M339.4,195.3c-0.3,1-0.7,0.6-0.7-0.8c-0.1-1.4,0.2-2.1,0.6-1.6
	C339.7,193.3,339.8,194.4,339.4,195.3z M294.4,207.3c0.3,2.5,1.1,4,1.5,3.3c0.4-0.8,1.9,1.4,3.3,4.8c1.3,3.4,2,6.2,1.3,6.2
	c-1.7,0-1.1,3.4,1,5.2c1.6,1.4,1.7,1.4,0.6-0.1c-3.5-4.4-0.1-5.2,3.9-1c2,2.3,3.9,2.9,8.4,2.9c3.3,0,6.8-0.5,8-1.1
	c1.5-0.8,1.9-0.8,1.5,0.1c-1.3,2.3-10.6,4.5-15.6,3.7c-6.8-1.3-11.8-5.2-15.5-12.6c-2.7-5-3.3-7.3-2.7-10.8
	C291.3,199.7,293,199.6,294.4,207.3z M298,205.4c-0.3,0.9-0.6,0.3-0.6-1.5s0.2-2.4,0.6-1.6C298.2,203.1,298.2,204.6,298,205.4z
	 M337.1,210.7c-2.1,5.7-7,12.9-9.3,13.9c-1,0.5,0-1.4,2.1-4c2.1-2.8,4.8-7.3,5.9-10.1C338.4,204,339.4,204.3,337.1,210.7z
	 M238.7,222.4c1.7,2,2.1,2.6,0.8,1.5c-1.2-1.1-3.3-2.6-4.5-3.4c-1.2-0.8-1.6-1.5-0.9-1.5C234.8,219,236.9,220.5,238.7,222.4z
	 M230.2,226.1c2,1.1,4.7,3.7,6.2,5.7s3,3.4,3.5,3.2c0.4-0.4,0.8,0.4,0.9,1.5c0.1,1.1,1.5,6.7,2.9,12.2c2.7,9.8,5.3,33,3.1,27.7
	c-0.8-1.9-1.1-0.3-1.1,5.9c-0.1,4.9,0.3,8.6,1,8.6c0.7,0,1.1-0.6,1.1-1.4c0-0.6,0.4-1,1-0.6c0.9,0.8-1.3,21.4-3.1,27.9
	c-2.1,7.6-4.7,13.2-8.1,17.6c-4.1,5.2-6.7,7.1-12.2,8.4c-3.7,0.9-3.7,0.9,0.8,0.5c2.7-0.3,5.2,0.1,5.6,0.8c0.3,0.8,0.1,1-0.4,0.6
	c-0.7-0.5-2.7,0-4.4,1c-1.8,1-4.1,1.9-5.3,1.9c-2.2,0-5.5-3-4.5-4.3c0.3-0.4-0.8-1.3-2.6-2s-4.8-3.2-6.7-5.2
	c-2.2-2.5-3.8-3.4-4.4-2.5c-0.3,0.8-1.2,1.1-1.8,0.6c-0.6-0.4-0.8-1.3-0.3-1.9c0.3-0.6,1.1-0.9,1.7-0.5c1.5,1,1.3,0.8-1.8-7.9
	c-1.6-4.3-2.8-9.1-2.9-10.6l-0.1-2.9l-0.7,2.9c-0.4,1.6-0.9-5.9-1.1-16.6c-0.6-31.5,3.7-52.1,13.3-64.3
	C216.1,224.3,223.3,222.2,230.2,226.1z M206.5,229.8c-1.2,1.8-2,3.9-1.6,4.7c0.3,0.8,0.1,0.9-0.6,0.4c-0.8-0.5-1.3-0.3-1.3,0.6
	s-0.3,1.3-0.7,0.9c-0.8-0.9,1.3-5.7,3.8-8.9C208.8,224,209.2,226.1,206.5,229.8z M210.8,228.3c0,0.3-0.9,1.3-1.9,2.1
	c-1.8,1.6-1.9,1.5-0.4-0.5C210,227.9,210.8,227.3,210.8,228.3z M246.7,236c0,0.6-0.6,0.4-1.1-0.6c-0.6-1-1.1-2.5-1.1-3.2
	c0-0.8,0.6-0.4,1.1,0.6C246.2,233.9,246.7,235.3,246.7,236z M399.5,248.7c10.6,1,19.4,2,19.5,2.3c0.1,0.1-1.1,3.5-2.8,7.6l-3.1,7.4
	l-41.3,0.1c-22.8,0.1-39.3-0.3-37-0.8c2.4-0.5,12.2-1,21.7-1.1c14-0.1,16.4-0.4,12.3-1.4c-4.8-1-30.8-0.4-35.1,1
	c-1.8,0.6-1.7-0.1,0.8-6c1.6-3.7,3-7.7,3.4-8.9c0.6-1.9,2.6-2.1,21.5-2.1C370.9,246.7,389,247.6,399.5,248.7z M198.2,252
	c-0.3,1-0.7,0.6-0.7-0.8c-0.1-1.4,0.2-2.1,0.6-1.6C198.4,250,198.5,251.1,198.2,252z M252.1,253.7c-0.3,0.4-1-0.3-1.3-1.5
	c-0.7-1.8-0.6-1.9,0.6-0.8C252.1,252.3,252.4,253.3,252.1,253.7z M440.1,254.9c3.4,0.8,3.7,4.3,0.8,7.3c-3.1,3.2-11.5,6.2-13.1,4.7
	c-0.9-0.8-1.8-0.6-2.7,0.4c-0.8,0.8,0.6-2,2.8-6.3c3.5-6.8,4.5-7.8,6.7-7.3C436.1,254,438.5,254.5,440.1,254.9z M248.6,265.9
	c-0.3,0.9-0.6,0.3-0.6-1.5s0.2-2.4,0.6-1.6C248.9,263.6,248.9,265.1,248.6,265.9z M76.7,277.9c-0.4,6.4-1.1,9.3-2.4,9.8
	c-1.3,0.5-1.6-0.4-1.1-5.5c0.3-3.5,0.1-6-0.4-5.7c-0.4,0.4-0.9,2.6-0.9,5s-0.4,4.3-1.1,4.3c-2.2,0-1-5.9,2.4-11.8
	c1.8-3.4,3.6-5.9,3.7-5.7C77,268.5,77,272.8,76.7,277.9z M249.7,281c-0.2,2.3-0.4,0.5-0.4-4s0.2-6.3,0.4-4.2
	C250,275.1,250,278.9,249.7,281z M423.8,269.9c0,0.3-0.8,0.9-1.8,1.3c-0.9,0.4-1.3,0.3-1-0.5C421.7,269.4,423.8,268.9,423.8,269.9z
	 M117,271.6c-0.8,0.3-2.4,0.3-3.4,0c-1.1-0.4-0.4-0.6,1.3-0.6C116.9,270.9,117.7,271.2,117,271.6z M193.7,275.3
	c-0.3,1.3-0.6,0.5-0.6-1.5c0-2.1,0.2-3,0.6-2.3C193.9,272.4,193.9,274.2,193.7,275.3z M418.8,273.2c-0.3,0.6-1.3,1.3-2,1.3
	c-0.8,0-0.7-0.5,0.3-1.3C419.3,271.7,419.7,271.7,418.8,273.2z M118.6,274c-0.3,0.4-1.3,0.5-2.1,0.1c-0.9-0.4-0.6-0.8,0.7-0.8
	C118.4,273.2,119,273.6,118.6,274z M430.2,276c-0.3,1-0.7,0.6-0.7-0.8c-0.1-1.4,0.2-2.1,0.6-1.6C430.5,274,430.6,275.1,430.2,276z
	 M114.1,283.4c5.8,6.3,7.6,14.4,7.6,33.7c0,14.9-0.2,17-2.1,18.5c-1.1,1-1.7,2.3-1.3,3c0.4,0.8-0.2,2.3-1.5,3.5
	c-1.2,1.1-2,2.5-1.7,3.2c0.3,0.5-0.2,0.6-1.1,0.3c-1-0.5-2,0.1-2.5,1.3c-1.1,3.4-4.1,2.3-8.2-3.2c-6.7-9.1-8.3-14.2-8.6-28.2
	c-0.3-13.7,0.2-19.9,1.9-18.8c0.6,0.4,0.7,1.4,0.3,2.1c-0.6,1.1-0.4,1.1,0.6,0.1c1.1-1.1,1.1-2.1,0.1-4.3c-1.1-2.3-1-2.6,0.1-1.9
	c1,0.8,1.2,0.3,0.8-1.6c-0.4-1.5-0.3-2.5,0.2-2.1c0.4,0.4,1.2-0.3,1.6-1.4c0.4-1.3,0.2-1.6-0.8-1.1c-0.7,0.5-0.1-0.4,1.5-1.8
	c1.6-1.4,3.3-2.6,3.7-2.6c0.6,0,0.6-0.6,0.2-1.3c-0.4-0.8,0.7-1.3,2.6-1.3C109.5,279.5,111.9,280.9,114.1,283.4z M120.6,285.9
	c1,2.1,1.7,4.2,1.5,4.4c-0.3,0.3-1.3-1.5-2.4-3.9C117.4,281,118.2,280.5,120.6,285.9z M393.6,291.2c-1.5,4.4-2.9,6.8-3.8,6.4
	c-0.7-0.3-2.6,0.9-4,2.6c-2.6,3-2.6,3.2-0.3,3.2c1.3,0,2.7-0.9,3-2c0.3-1,1.1-1.6,1.7-1.1c0.7,0.4,1.7-0.5,2.4-2
	c0.8-1.4,1.6-2.4,1.8-2c1,1-5.3,12.1-8.1,14.1c-1.5,1.1-2.5,2.5-2.1,3.2c0.9,1.6-3.3,3.8-7.5,3.8c-5.2,0-12.3-2.4-11.5-3.9
	c0.4-0.6,1.2-0.9,1.8-0.5c0.6,0.5,1,0.1,1-0.6c0-0.9,0.7-1,2.1,0c5.5,3.3,14.6-0.1,18.5-6.9c2.8-4.8,2.1-4.9-1.6-0.1
	c-7.7,10-19.2,8.1-22.3-3.5c-1.9-7.1-2.6-12.1-1.5-12.1c0.6,0,1.3,2.8,1.8,6.3c0.4,3.4,1.2,6.6,1.8,6.9c0.6,0.4,0.6-1-0.1-3.4
	c-1.5-5.9-1.2-9.8,0.6-9.8c0.9,0,1.8,2,2.2,4.9c0.3,2.8,1.8,6.4,3.3,7.9c1.3,1.6,1.9,2.1,1.2,1c-1.5-2.3-3.8-9.7-3.8-12.1
	c0-3.3,2-1.8,2.6,2c1,5.5,4.8,9.2,8.4,8.3c3.9-1,10.9-9.7,12.7-15.6c0.8-2.5,1.6-4,1.8-3.3C395.7,283.5,394.8,287.3,393.6,291.2z
	 M427.7,285.4c-1.3,6.7-7.3,17.6-12.6,23.2l-5.2,5.5l5.2-6.4c5.4-6.7,8.6-12.9,10.9-21C427.5,281.3,428.7,280.4,427.7,285.4z
	 M291.2,293.6c-0.2,1.6-0.4,0.6-0.4-2.1c-0.1-2.8,0.1-4,0.4-2.9C291.5,289.8,291.5,292.1,291.2,293.6z M382.9,288.3
	c-0.3,0.6-1.3,1.3-2,1.3c-0.8,0-0.7-0.5,0.3-1.3C383.4,286.8,383.8,286.8,382.9,288.3z M72.7,296c-0.3,2.5-0.6,2.4-1-1.1
	c-0.3-2.5-0.2-3.7,0.4-2.9C72.7,292.6,73,294.4,72.7,296z M319.3,291.6c-0.3,0.4-1.3,0.5-2.1,0.1c-0.9-0.4-0.6-0.8,0.7-0.8
	C319,290.8,319.7,291.2,319.3,291.6z M355.1,293.6c-0.3,1-0.7,0.6-0.7-0.8c-0.1-1.4,0.2-2.1,0.6-1.6
	C355.4,291.6,355.5,292.7,355.1,293.6z M302.3,294.9c-2.5,0.6-4.9,0.8-5.6,0.5c-0.7-0.3-0.1-0.6,1.3-0.6c1.3-0.1,2.5-0.6,2.5-1.3
	c0-0.5,1.3-0.8,3.1-0.4C306.6,293.7,306.5,293.9,302.3,294.9z M313.8,293c-1.1,0.3-2.9,0.3-3.9,0c-1.1-0.4-0.2-0.6,1.9-0.6
	C313.9,292.4,314.8,292.6,313.8,293z M124.2,299.9c-0.3,0.9-0.6,0.3-0.6-1.5c0-1.8,0.2-2.4,0.6-1.6
	C124.4,297.6,124.4,299.2,124.2,299.9z M357.6,301.6c0,0.6-0.4,0.4-1-0.6c-0.6-1-1-2.8-1-3.8C355.6,295.1,357.5,299.2,357.6,301.6z
	 M360.7,298.7c-0.3,1-0.7,0.6-0.7-0.8c-0.1-1.4,0.2-2.1,0.6-1.6C361,296.6,361.1,297.8,360.7,298.7z M290.1,301.2
	c-0.3,0.9-0.6,0.3-0.6-1.5c0-1.8,0.2-2.4,0.6-1.6C290.3,298.9,290.3,300.4,290.1,301.2z M255.4,302.4c-0.3,0.9-0.6,0.3-0.6-1.5
	c0-1.8,0.2-2.4,0.6-1.6C255.6,300.2,255.6,301.7,255.4,302.4z M365.9,308.1c1.2,1.6,1.8,2.9,1.1,2.9c-1.3,0-5.9-7.7-5.9-9.6
	c0-0.6,0.7,0,1.3,1.4S364.7,306.6,365.9,308.1z M125.3,312.5c-0.2,2.3-0.4,0.8-0.4-3.4s0.2-6,0.4-4.2
	C125.5,306.8,125.5,310.3,125.3,312.5z M359.3,305.5c0.3,1,0.2,1.5-0.4,1.1c-0.7-0.4-1.1-1.3-1.1-2
	C357.7,302.8,358.5,303.2,359.3,305.5z M259.7,312.9c-0.9,8.4,1.3,9.6,4.1,2.1l1.8-4.7l-0.6,4c-0.3,2.3-0.2,4.2,0.3,4.2
	c0.6,0,1.9-1.9,2.9-4.2c1.7-3.9,1.8-3.9,1.8-0.8c0.1,1.8,0.8,4.3,1.7,5.5c1.5,2.3,1.7,2.1,3.9-2.6c1.3-2.6,2.1-3.8,1.7-2.4
	c-1.7,5.9-1.7,6.9-0.1,8.7c1.3,1.6,2.1,0.9,5.7-5.9c2.2-4.3,4-7.2,4-6.6c0,2.9-6.8,14.4-12.1,20.3c-6.1,6.9-14,13-12.9,9.8
	c0.8-2.3,0.4-2.3-5.7,0.6c-3.9,2-4.9,2.1-4.4,0.6c0.8-2.3-0.1-2.3-4.5,0.3l-3.6,2l3.1-3.7c5-6,3.7-7.3-3.4-2.8l-6.5,4l4.5-4.9
	c9-9.8,13.5-16.8,15.6-23.7c1.2-3.9,2.4-7.1,2.7-7.1S260.2,309.1,259.7,312.9z M362.2,311c0.7,1.4,0.9,2.5,0.7,2.5
	c-0.3,0-1.1-1.1-1.8-2.5c-0.7-1.4-0.9-2.5-0.7-2.5C360.7,308.5,361.5,309.6,362.2,311z M91.7,313.8c-0.3,0.9-0.6,0.3-0.6-1.5
	c0-1.8,0.2-2.4,0.6-1.6C91.9,311.5,91.9,313,91.7,313.8z M248.6,315c-0.3,1-0.7,0.6-0.7-0.8c-0.1-1.4,0.2-2.1,0.6-1.6
	C248.9,313,249,314.2,248.6,315z M125.3,323.2c-0.3,1.3-0.6,0.3-0.6-2.1c0-2.4,0.2-3.4,0.6-2.3C125.5,320.1,125.5,322.1,125.3,323.2
	z M198.2,320.1c-0.3,1-0.7,0.6-0.7-0.8c-0.1-1.4,0.2-2.1,0.6-1.6C198.4,318.1,198.5,319.2,198.2,320.1z M384.3,318.8
	c2.1-0.8,4.9-0.9,6.3-0.4c1.8,0.8,0.9,1.4-4.5,2.9c-7,2-12.8,1.9-17.9-0.4c-4.9-2.1-1-3.4,6.1-2
	C378.4,319.7,381.7,319.7,384.3,318.8z M87.1,323c2,5.8-4.1,12.6-10.5,11.7c-2.5-0.3-3-1-3.1-4.2c-0.1-5.2,0.6-6.9,2.7-6.9
	c1.5,0,1.3,0.5-0.4,2.8c-1.1,1.6-0.2,1,2.1-1.3C82.3,320.8,86.1,320,87.1,323z M163.4,321.8c-0.3,0.4-1.3,0.5-2.1,0.1
	c-0.9-0.4-0.6-0.8,0.7-0.8C163.2,321.1,163.9,321.5,163.4,321.8z M184.8,330.5c1.1-0.5,0.4,0.9-1.3,3c-3.9,4.7-7.7,5-10.2,1
	l-1.9-2.8l0.8,3.2c0.7,3,0.6,3-1,0.8c-1.2-1.8-1.3-2.6-0.3-3.9c1.1-1.4,1.8-1.3,3.8,0.9c1.3,1.4,3.3,2.3,4.5,1.9
	c1.7-0.5,1.6-0.6-0.4-0.8c-2.4-0.1-2.4-0.3,0.6-3.7c2.7-3,3-3.2,3.4-1.1C182.9,330.7,183.6,331,184.8,330.5z M243,330.8
	c-0.9,1.9-3,4.9-4.6,6.6c-1.6,1.6-2.6,3.5-2.1,4.3c0.3,0.8,0.1,0.9-0.7,0.4c-0.9-0.6-0.1-2.4,2.6-5.8c2-2.6,4.1-6,4.6-7.6
	c0.4-1.5,1-2.4,1.3-2.1C244.4,326.9,243.9,328.8,243,330.8z M153,329.7c0.2,0.5-0.3,1.1-1.3,1.3s-3.8,0.5-6.1,1
	c-3.9,0.8-5.4-0.3-3.5-2.4C143.1,328.3,152.3,328.4,153,329.7z M140.2,332.2c0,0.6-0.8,2.1-1.7,3.5c-1.6,2.3-1.6,2.1-0.4-1.1
	C139.4,331.2,140.2,330.3,140.2,332.2z M184.7,336c-1.7,2-2.7,3.9-2.2,4.4c1.1,1.3,2.8,1,2-0.3c-0.3-0.6,0-1.6,0.7-2.1
	c0.9-0.5,1-0.4,0.6,0.5s-0.1,1.5,0.9,1.5c1,0,1.8,0.5,1.8,1.1c0,0.6-2.6,1.4-5.6,1.6c-3.1,0.1-5.6,0.3-5.6,0.1
	c0-0.4,9.5-10.5,10-10.5C187.5,332.4,186.4,334.1,184.7,336z M213.1,342.4c2.4,1,2.5,1.3,0.6,1.3c-2.7,0.1-3.6-0.6-7.3-5.5l-2.8-3.8
	l3.4,3.4C208.8,339.6,211.5,341.6,213.1,342.4z M97.6,354.5c0,0.3-1.1,1.1-2.5,1.9c-2.5,1.4-2.5,1.3-0.4-0.5
	C97.1,353.7,97.6,353.5,97.6,354.5z"/>
<path class="st0" d="M256.3,134.6c0.7,1.1,0.4,1.5-0.8,1c-0.9-0.5-2.4-0.3-3.3,0.4c-1.1,0.8-0.8,1.1,1.5,1.1c3.4,0,5-1.9,3-3.3
	C255.8,133.2,255.7,133.4,256.3,134.6z"/>
<path class="st0" d="M259.1,137.6c0,0.3,0.8,0.9,1.8,1.3c0.9,0.4,1.3,0.3,1-0.5C261.2,137.1,259.1,136.6,259.1,137.6z"/>
<path class="st0" d="M227.4,139.2c0.8,0.4,1.8,0.3,2.1-0.1c0.4-0.4-0.2-0.8-1.5-0.6C226.9,138.5,226.5,138.8,227.4,139.2z"/>
<path class="st0" d="M270.6,139.6c-3.8,1.8-3.1,2.6,0.8,1.1c1.9-0.8,3.4-1.6,3.4-1.9C274.7,138.1,273.4,138.3,270.6,139.6z"/>
<path class="st0" d="M240.3,140.5c1,0.3,2.6,0.3,3.4,0c0.7-0.4-0.1-0.6-2-0.6C239.9,139.8,239.2,140.1,240.3,140.5z"/>
<path class="st0" d="M254.3,140.5c0.8,0.4,1.8,0.3,2.1-0.1c0.4-0.4-0.2-0.8-1.5-0.6C253.8,139.7,253.4,140.1,254.3,140.5z"/>
<path class="st0" d="M276.8,140.5c0.7,0.3,2,0.3,2.8,0c0.7-0.4,0.1-0.6-1.5-0.6S276,140.1,276.8,140.5z"/>
<path class="st0" d="M248.2,141.7c1,0.3,2.6,0.3,3.4,0c0.7-0.4-0.1-0.6-2-0.6C247.7,141.1,247.1,141.4,248.2,141.7z"/>
<path class="st0" d="M254.9,143c1,0.3,2.6,0.3,3.4,0c0.7-0.4-0.1-0.6-2-0.6C254.5,142.4,253.8,142.6,254.9,143z"/>
<path class="st0" d="M261.1,144.3c0.8,0.4,1.8,0.3,2.1-0.1c0.4-0.4-0.2-0.8-1.5-0.6C260.5,143.5,260.2,143.9,261.1,144.3z"/>
<path class="st0" d="M136.6,207.3c1.3,0.3,3.6,0.3,5,0c1.3-0.3,0.2-0.5-2.6-0.5C136.3,206.8,135.2,207,136.6,207.3z"/>
<path class="st0" d="M127.7,208.5c0.7,0.3,2,0.3,2.8,0c0.7-0.4,0.1-0.6-1.5-0.6C127.4,207.9,126.9,208.2,127.7,208.5z"/>
<path class="st0" d="M113.5,224.3c-1.8,2-1.7,6,0.2,6c2.2,0,4.4-3.4,3.6-5.7C116.6,222.4,115.3,222.3,113.5,224.3z M116.7,225.2
	c0,0.6-0.8,1.8-1.7,2.6c-1.3,1.3-1.7,1.3-1.7-0.3c0-1,0.3-2.3,0.8-2.6C115.1,223.7,116.7,223.8,116.7,225.2z"/>
<path class="st0" d="M220,232.4c-3.1,2.4-3.4,4.9-0.3,3c1.2-0.6,4.5-1.3,7.3-1.3c3.8,0,5.2-0.5,5.2-1.9
	C232.1,229.6,223.4,229.7,220,232.4z"/>
<path class="st0" d="M210,236.3c-3,4.9-7,13.9-7,15.8c0,0.9,1-0.6,2.1-3.5c1.1-2.8,3.4-7.4,5-10.3C213.4,232.2,213.3,231,210,236.3z
	"/>
<path class="st0" d="M220.4,237.7c-1.8,1.4-4,3.3-4.9,4.4c-1.5,2-1.7,2-2.9,0.1c-1.1-1.9-1.6-1.6-3.7,2.3
	c-2.7,4.8-3.5,11.8-1.1,10.3c0.9-0.6,1-0.3,0.4,1.5c-0.4,1.3-1.1,4.2-1.5,6.4c-0.3,2.5-1.1,3.8-2,3.4c-3-1.4-4,16-1.1,19.2
	c0.9,1.1,1.7,3.4,1.7,5.3c0,8.7,5.4,23.8,10.3,28.9c2.8,3,7.7,5.4,11,5.4c4.7,0,15.8-15.6,15.6-22.1c-0.1-1.6-0.4-1.1-1.1,1.4
	c-1.6,6-8,16-11.4,17.9c-7,3.8-15.5-2.9-20-15.8c-2.2-6.4-2.6-9.6-2.7-25c0-14.4,0.4-18.7,2.1-23.3c1.1-3.2,2.1-6.9,2.2-8.4
	c0.2-1.6,0.7-3.3,1.2-3.8c0.4-0.6,0.6-0.1,0.1,0.9c-0.6,1,0.8-0.3,2.9-2.8c3.5-4.4,8.1-7.3,11.5-7.3c2.6,0,8.1,6.4,11.2,13.1
	c1.6,3.4,2.8,5.5,2.8,4.7c0-3.7-5.8-14-9.3-16.4C227.1,234.8,224.7,234.8,220.4,237.7z M204.9,276c-0.3,0.9-0.6,0.3-0.6-1.5
	c0-1.8,0.2-2.4,0.6-1.6C205.1,273.7,205.1,275.2,204.9,276z"/>
<path class="st0" d="M221.3,254.9c-5.7,4.5-8,25.5-3.7,35.3c2.9,6.9,4.7,9.2,8,10.1c3.5,1,8.2-4,7.1-7.4c-0.6-1.6-1-1.8-1.6-0.8
	c-0.6,1-1.3-0.1-2.2-3c-0.8-2.6-1.6-4.4-1.9-4.2c-0.9,1.1,3,9.8,4.1,9.1c2-1.4,1.1,1.5-1.2,3.9c-2,2.1-2.6,2.1-5.2,0.5
	c-1.6-1-2.9-2.3-2.9-2.9c0.1-0.5,0.4-5,0.9-10c0.8-8.9,0.9-8.9,2.4-5.3c0.9,2,1.3,2.6,1,1.4c-1.7-6.8-1.7-8.4-0.1-12.9
	c1-2.6,1.6-5,1.3-5.3c-0.2-0.4-1.1,1.5-1.9,4c-1.2,3.8-1.7,4.2-2.4,2.3c-0.7-1.6-0.8-1.5-0.4,0.9c0.3,1.8-0.1,7.9-0.9,13.9
	l-1.3,10.7l-1.9-5.4c-2-5.7-2.5-20.4-0.8-24.8c0.7-1.8,1-2,1.1-0.6c0.1,1,0.9,0.1,1.7-1.9c0.8-2.1,1.2-4.2,1-4.7
	c-0.8-1.4,3.7-3.5,5.7-2.8c1.8,0.9,4.7,6.3,6.3,11.8c0.6,2.1,0.9,2.4,0.9,0.9c0.1-3.3-4-12-6.5-13.5
	C224.9,252.7,224.1,252.7,221.3,254.9z M220.2,260.6c-0.3,1.5-0.9,2.4-1.2,2c-0.6-0.8,0.6-4.5,1.3-4.5
	C220.5,258.1,220.5,259.2,220.2,260.6z"/>
<path class="st0" d="M200.9,259c-3.9,15.6-4.1,35.7-0.7,50.8c0.9,3.8,1.3,4.9,1,2.5c-2.5-19.5-2.8-24.5-2.1-32.9
	c0.3-5.3,1.3-13,2.2-17C203,254,202.7,251.5,200.9,259z"/>
<path class="st0" d="M241.2,258.8c0,1.4,0.3,1.8,0.7,0.8c0.3-0.9,0.2-2-0.1-2.4C241.5,256.7,241.1,257.4,241.2,258.8z"/>
<path class="st0" d="M234.7,282.6c0,2.8,0.2,3.8,0.4,2.1c0.2-1.5,0.2-3.8,0-5C234.8,278.6,234.6,279.9,234.7,282.6z"/>
<path class="st0" d="M233.4,290.3c0,1.4,0.3,1.8,0.7,0.8c0.3-0.9,0.2-2-0.1-2.4C233.6,288.2,233.3,289,233.4,290.3z"/>
<path class="st0" d="M202.4,298.7c0.9,7.8,2.9,13.2,4.5,12.4c1.2-0.8,1.3-0.4-1.3-11.1C203.2,290.3,201.4,289.7,202.4,298.7z"/>
<path class="st0" d="M233.4,297.5c-0.9,1.4-0.7,2.3,0.9,3.9c1.2,1.3,1.9,3,1.6,4c-1.3,3.9,2,1.5,3.8-2.8c1.7-3.9,1.7-4.5,0.3-5.5
	C237.6,295.4,234.8,295.6,233.4,297.5z"/>
<path class="st0" d="M242.3,297.9c0,1.4,0.3,1.8,0.7,0.8c0.3-0.9,0.2-2-0.1-2.4C242.6,295.8,242.2,296.5,242.3,297.9z"/>
<path class="st0" d="M242.5,310c-0.8,0.9-1.3,2-1.3,2.6c0,0.5-1.2,2.9-2.9,5.3c-1.6,2.3-2.4,4.5-1.8,4.9c1.3,0.9,9.2-8.7,9.2-11.1
	C245.6,309.1,243.9,308.4,242.5,310z"/>
<path class="st0" d="M202,318.6c0,1,0.7,3.5,1.6,5.7c1.9,4.9,2,2.6,0-3.2C202.8,318.7,202,317.6,202,318.6z"/>
<path class="st0" d="M213.1,322.9c0,4.5,12.3,11,15.4,8.1c2.2-2-0.1-4.4-5.4-5.2c-2.5-0.4-5.4-1.5-6.5-2.6
	C214.1,320.6,213.1,320.6,213.1,322.9z"/>
<path class="st0" d="M210.7,332.2c0.7,1.5,1.8,3,2.5,3.5c0.9,0.5,0.9,0.1,0-1.8c-0.7-1.5-1.8-3-2.5-3.5
	C209.8,329.9,209.8,330.3,210.7,332.2z"/>
<path class="st0" d="M378,263.6c0.2,0.3,8.3,0.6,17.8,1c10.1,0.4,14.8,0.3,11.2-0.3C400.8,263.4,377.1,262.7,378,263.6z"/>
<path class="st0" d="M108.8,288.3c0,0.6,0.9,1.3,2,1.3c1,0,3.1,0.4,4.7,0.9c2.5,0.8,2.7,0.6,1.2-1.3
	C115.2,286.9,108.8,286.2,108.8,288.3z"/>
<path class="st0" d="M102.1,292.4c-2.2,4.3-2.9,7.3-1.3,7.3c1.3,0,5.7-10,4.6-10.7C104.8,288.6,103.3,290.1,102.1,292.4z"/>
<path class="st0" d="M108.5,292.2c-3.1,2.1-5.3,8.2-5.3,15.3c0,6.4,1.9,16.9,2.8,15.9c0.3-0.3,0-2.6-0.7-5.2c-1.3-5.7-0.2-8.7,2-5.3
	c0.8,1.4,1.5,3.8,1.6,5.5c0,1.8,0.3,2.5,0.7,1.6c0.4-1.3,0.9-1.3,2.1-0.1c2.4,2.1,1.9,4-0.8,3.3c-1.8-0.5-2.1-0.4-1.2,0.6
	c1.8,2,4.4,0.4,5.2-3.4c0.7-3-1.1-14.1-2.1-13c-0.2,0.3,0.1,2.9,0.8,5.8c0.7,3,0.9,5.7,0.6,6.2c-1.6,1.6-4.1-2.6-4.3-7.1
	c-0.1-2.5-0.3-3.5-0.7-2.3c-0.7,3-2.6,1.4-2.6-2.4c0-2.3,0.6-3,2.4-3c1.5,0,2,0.5,1.5,1.5c-0.6,0.9-0.3,1,0.6,0.4
	c1.9-1.3-0.2-3.5-2.8-2.9c-1.2,0.3-2.4,1.9-2.8,4.2c-0.7,3.4-0.8,3.2-0.9-1.6c-0.1-6.2,1.2-10,4.8-13.1
	C111.9,290.7,111.5,290.2,108.5,292.2z"/>
<path class="st0" d="M113.3,293.5c0.9,1,2.4,2.6,3.3,3.7c1.3,1.5,1.2,1.3,0-1.1c-1-1.8-2.5-3.4-3.4-3.7
	C112,292,112,292.1,113.3,293.5z"/>
<path class="st0" d="M95.6,304.7c0,1.8,0.2,2.4,0.6,1.5c0.2-0.8,0.2-2.3,0-3.2C95.8,302.3,95.6,302.9,95.6,304.7z"/>
<path class="st0" d="M99.4,304.3c-0.9,1-0.9,5.8,0,8.4c1.2,3.7,2.7,2.1,2.7-2.9C102.1,305.1,101,302.7,99.4,304.3z"/>
<path class="st0" d="M117.4,318.9c-1.8,1.4-1.8,1.9-0.2,5.3l1.7,3.7l1.2-3.5C122.2,317.8,121.3,315.8,117.4,318.9z"/>
<path class="st0" d="M101,321.2c0,3.4,2.7,8.6,3.9,7.2c0.4-0.4-0.3-2.9-1.6-5.7C101.3,318.3,101.1,318.2,101,321.2z"/>
<path class="st0" d="M95.5,321.2c-0.1,2.3,2.2,10.3,2.8,9.7c0.2-0.3-0.3-3-1.2-6C96.3,321.7,95.5,320.1,95.5,321.2z"/>
<path class="st0" d="M106.6,325.4c0,0.8,1.3,2.9,3,4.8c3,3.7,6.3,4.4,9.3,2.3c1.1-0.8,0.4-1-2.4-0.5c-3.6,0.6-4.4,0.3-7-3.4
	C107.9,326.1,106.6,324.7,106.6,325.4z"/>
<path class="st0" d="M99.9,335c0.7,1.4,1.5,2.5,1.8,2.5c0.2,0,0-1.1-0.7-2.5s-1.5-2.5-1.8-2.5C99,332.4,99.2,333.6,99.9,335z"/>
<path class="st0" d="M107.7,334.8c0,2.4,6.3,5.8,7.3,3.9c0.3-0.5-1-2-2.9-3C107.9,333.3,107.7,333.3,107.7,334.8z"/>
<path class="st0" d="M102.1,339.2c0,0.3,0.9,1.3,2,2.1c1.7,1.6,1.8,1.5,0.3-0.5C103,338.9,102.1,338.2,102.1,339.2z"/>
<path class="st0" d="M380.7,314.8c-0.3,0.8,0.1,0.9,1,0.5c2-0.9,2.4-1.8,0.8-1.8C381.8,313.5,381,314,380.7,314.8z"/>
<path class="st0" d="M82.9,329.3c-0.9,1-3,2-4.7,2.1c-1.7,0.1-3,0.8-3,1.3c0,2.5,9.5-0.6,10.5-3.5C86.5,326.9,85.1,326.9,82.9,329.3
	z"/>
<path class="st0" d="M96.2,77.5c-0.3,0.6,0.3,3.7,1.6,6.7c1.7,4.3,1.9,5.7,0.8,6.6c-2.5,1.8-3.7,1.1-5.5-3.2c-1-2.1-2.7-4.3-3.8-4.5
	c-1.9-0.4-2,0.5-1.3,10.7c0.6,10.1,0.9,11.5,3.6,14c5.5,5.3,17.6,2.8,19.2-4c0.7-3.2-1.2-10.1-3-11.5c-0.6-0.4-0.2,1.4,0.9,3.8
	c1.5,3.7,1.6,5,0.4,7.8c-0.8,2.1-1.9,3-3,2.5c-0.9-0.4-1.5-0.3-1.1,0.4c1.7,2.9-7,3.5-11.5,0.8c-2.4-1.3-3.4-3-3.9-6.6
	c-1-6.9-0.8-16.8,0.2-16.8c0.6,0,1.9,2.3,3,4.9c1.8,4.7,2.1,4.9,5.2,3.7c3.6-1.4,3.9-2.8,1.6-7.3c-0.9-1.8-1.6-4.3-1.6-5.7
	c-0.1-2.3,0.1-2.3,2.2,0.6l2.4,3.2l-1.6-3C99,77.1,97.1,75.8,96.2,77.5z"/>
<path class="st0" d="M327.1,79.6c-0.3,1-0.3,2.1,0,2.5c1.2,1.3,4.6,0.9,5.5-0.8c0.6-1,0-1.1-1.7-0.6c-1.9,0.5-2.4,0.3-1.9-1.1
	c0.3-1,0.1-1.8-0.3-1.8C328.1,77.8,327.4,78.6,327.1,79.6z"/>
<path class="st0" d="M335.3,79.2c0,0.6,0.6,0.9,1.1,0.5c0.7-0.4,1.1-1,1.1-1.4c0-0.3-0.4-0.5-1.1-0.5
	C335.8,77.8,335.3,78.5,335.3,79.2z"/>
<path class="st0" d="M240,86.5c-5.9,6.8-5.2,6.9,1.5,0.3c2.6-2.6,6.3-8.1,5-7.6C246.3,79.3,243.4,82.6,240,86.5z"/>
<path class="st0" d="M308.2,81.9c1.9,1,2.9,1,3.8,0c1-1.1,0.4-1.5-2.5-1.4C305.8,80.5,305.7,80.6,308.2,81.9z"/>
<path class="st0" d="M104.3,87.9c0.7,1.4,1.5,2.5,1.8,2.5c0.2,0,0-1.1-0.7-2.5c-0.7-1.4-1.5-2.5-1.8-2.5
	C103.5,85.4,103.7,86.5,104.3,87.9z"/>
<path class="st0" d="M103.2,91.1c0,0.6,0.6,2.1,1.1,3.2c0.6,1,1.1,1.3,1.1,0.6c0-0.8-0.6-2.1-1.1-3.2
	C103.8,90.7,103.2,90.3,103.2,91.1z"/>
<path class="st0" d="M147.4,93.7c-6.6,3.9-12.4,9.8-14.6,15c-0.9,2-1,2.6-0.2,1.3c2.6-4.5,9.9-12,14.5-14.5
	c2.5-1.5,7.4-3.2,10.9-3.7l6.4-1.1l-5.7-0.1C154.5,90.4,151.4,91.3,147.4,93.7z"/>
<path class="st0" d="M248,94.9c-0.1,2-0.3,2.1-1.2,0.6c-1.7-3.2-2.1-0.9-1,5.3c0.7,3.3,1.9,6.6,2.8,7.4c1.3,1.3,1.6,0.5,1.5-4.7
	c0-3.4-0.4-7.3-1-8.7l-1-2.5L248,94.9L248,94.9z M248.6,105.8c-0.3,1-0.7,0.6-0.7-0.8c-0.1-1.4,0.2-2.1,0.6-1.6
	C248.9,103.8,249,104.9,248.6,105.8z"/>
<path class="st0" d="M94.3,96.5c0,0.6,0.8,1.9,1.7,2.8s1.7,1,1.7,0.3c0-0.6-0.8-1.9-1.7-2.8S94.3,95.7,94.3,96.5z"/>
<path class="st0" d="M174.3,99.8c0.4,3.9,0.4,3.9-3.9,1.3c-1.9-1-3.7-1.6-4-1.3c-0.3,0.3,1.7,1.8,4.4,3.2c4,2,4.9,2.1,5.2,0.6
	c0.2-1,0.9-1.5,1.5-1.1c1.9,1.4,1-1.5-1.1-3.7C174.1,96.6,174.1,96.6,174.3,99.8z"/>
<path class="st0" d="M179,99.9c0.4,1,1.1,1.9,1.7,1.9c0.4,0,0.7-0.9,0.3-1.9c-0.4-1-1.1-1.9-1.7-1.9C178.9,98,178.7,98.9,179,99.9z"
	/>
<path class="st0" d="M150.3,106.3c-6.2,3-11.1,7.8-13.6,13.4c-1.2,2.8-2,5.3-1.7,5.7c0.3,0.4,1.1-0.6,1.7-2.4
	c0.6-1.6,3.6-5.7,6.7-8.8c6.4-6.6,13.2-9.1,21.3-7.9c3.7,0.5,4.5,0.3,2.9-0.5C164.2,103.8,154.7,104.2,150.3,106.3z"/>
<path class="st0" d="M112.9,107.7c-0.7,1.8-0.6,1.9,0.6,0.8c0.8-0.9,1.1-1.9,0.8-2.3C113.9,105.8,113.2,106.4,112.9,107.7z"/>
<path class="st0" d="M231.9,109c-0.3,5.8-0.2,7.2,1,7.6c0.9,0.4,1.1-0.8,0.7-3.8c-0.4-3.7-0.2-4.5,1.5-5c1.8-0.5,1.7-0.6-0.3-0.8
	C233,106.8,232,107.6,231.9,109z"/>
<path class="st0" d="M258.6,109.1c-0.8,1.4,1.5,10.5,3,12.6c1,1.4,1.5,1.4,2.7-0.5c0.8-1.3,1.5-3.4,1.3-4.8c0-1.9-0.4-1.4-1.5,1.6
	c-1.2,3.9-1.5,4-2.2,1.9c-0.6-1.3-1.3-4.3-1.8-6.7l-0.9-4.2l4,0.8c2.9,0.5,3.6,0.3,2.5-0.5C263.6,107.8,259.4,107.7,258.6,109.1z"/>
<path class="st0" d="M150.3,114c-4.4,1.8-13.6,14.9-13.5,18.9c0.1,0.5,1-0.9,2-3.2c3.1-6.6,10.3-14.2,12.9-13.9
	c1.2,0.3,2.5-0.4,2.7-1.3C155,113.1,153.2,112.8,150.3,114z"/>
<path class="st0" d="M149.9,126.1c-3.1,4.5-6.7,13.2-8,19.2c-1.1,5.3,0,3.7,2.8-4.4c1.3-3.8,4.1-9.6,6.3-12.9
	C155.2,121.2,154.2,119.6,149.9,126.1z"/>
<path class="st0" d="M132,131.7c-1.2,1.4-0.9,17.3,0.4,21.9c1.5,4.7,5.2,10,7.1,10c0.6,0-0.2-1.5-1.8-3.5
	c-3.7-4.3-5.8-13.4-5.2-22.3c0.3-3.8,0.4-6.9,0.3-6.9C132.8,130.8,132.4,131.2,132,131.7z"/>
<path class="st0" d="M164,133.5c-0.8,0.9-1.3,2.4-1.3,3.4c0,1.4,0.6,1.1,1.8-0.9c2-3.4,5-3.5,7.5-0.5c2,2.4,2.5,7.4,1,9.8
	c-2.5,4.2-8.6,1.8-9.5-3.7c-0.3-2.5-0.4-2.5-1.3-0.5c-1.1,2.9,3.3,8.4,6.7,8.4c6.3,0,9.1-9.5,4.5-15.1
	C171.1,131.8,166.1,131.2,164,133.5z"/>
<path class="st0" d="M195.2,137.8c0,0.8-3,2.1-6.7,2.9c-3.7,0.9-7,2-7.3,2.8c-1,1.8,4.1,11.1,8.5,15.6c3.3,3.3,3.5,3.4,1.8,0.6
	c-6.5-10.5-8.5-14.4-8.1-15.1c0.8-1.5,11.5-4.2,12.9-3.2c1.5,1,1.5-0.6,0-3.2C195.7,137.3,195.2,137.1,195.2,137.8z"/>
<path class="st0" d="M153.8,152.3c-0.1,1.1,1,3.4,2.4,5c1.8,2.3,2.1,2.4,1.7,0.8c-0.4-1.3-0.8-3.5-0.8-5c0-2-0.3-2.3-1-1
	c-0.8,1.4-1,1.4-1.6,0C154,150.7,153.8,150.8,153.8,152.3z"/>
<path class="st0" d="M314.1,157.1c-0.9,0.6,0.6,0.9,3.9,0.5c3-0.4,5.7-0.9,5.9-1.1C325,155.5,315.6,156.1,314.1,157.1z"/>
<path class="st0" d="M266.3,173.5c-26.7,8.1-28.6,8.8-28.6,11.5c0,1.3,0.4,2.6,1,3.2c0.6,0.4,7.3-1.5,14.9-4.3
	c7.6-2.8,17.2-5.9,21.1-7.1c7.6-2.1,12.3-4.9,12.3-6.9C287.1,167.8,282.8,168.6,266.3,173.5z M284.7,171.5
	c-2.6,2.1-44.6,15.4-45.5,14.2c-1.3-1.5,1.6-2.8,19.6-8.3c9.8-2.9,18.8-5.8,20.4-6.3c1.6-0.6,3.8-1.1,5-1.1
	C286.3,170,286.3,170.1,284.7,171.5z"/>
<path class="st0" d="M303.1,176.9c-1.6,3.8-2.6,7.2-2.4,7.4c0.2,0.3,1.8-2.9,3.4-6.9c1.6-4.2,2.7-7.6,2.5-7.6
	C306.2,169.8,304.7,173,303.1,176.9z"/>
<path class="st0" d="M381.2,176.9c2.8,1.8,5.7,3.8,6.4,4.5c0.8,0.8,1.5,1,1.5,0.5c0-1.1-10.2-8.3-11.7-8.3
	C376.8,173.6,378.4,175.1,381.2,176.9z"/>
<path class="st0" d="M227.8,185.1c-1.6,0.6-3.5,1.9-4.3,2.6c-0.8,0.8-6.2,3.2-11.9,5.4c-17.6,7.1-50.1,23.7-68.7,35.3
	c-17.7,11-57.8,40.2-61.4,44.6c-4.4,5.4,0.9,3.4,11.2-4.4c6.2-4.5,12.9-9.5,15-10.7c10.8-6.9,13.3-8.7,19.4-13
	c3.5-2.5,6.4-4.3,6.4-3.9c0,0.5,1.5-0.4,3.1-1.6c10.5-8.6,43-25.7,71.9-38.2c8.2-3.5,12.9-6.3,13.2-7.7c0.4-1.8,1-1.9,2.6-0.8
	c2.9,2,10.9-0.8,11.8-4C237.4,184,233.8,182.3,227.8,185.1z M235.5,186.9c0,2.5-3.6,4.4-6.8,3.7c-2.1-0.6-2.4-0.4-1,0.6
	c1.5,1.1,1.2,1.4-0.8,1.4c-7,0-1-7.2,6.2-7.4C234.5,185,235.5,185.7,235.5,186.9z M220.7,192.7c-0.2,0.8-8.2,5-17.7,9.3
	c-32.5,14.6-57.1,28.1-82.2,45c-13.9,9.3-29.7,20.8-32.7,23.7c-2.2,2.1-6.2,4.2-6.2,3.2c0-1.4,43.5-32.6,57.7-41.7
	c21.2-13.4,48.4-27.5,71.2-37.2C220.4,190.9,221.3,190.8,220.7,192.7z"/>
<path class="st0" d="M301.4,187.1c0.8,0.4,1.8,0.3,2.1-0.1c0.4-0.4-0.2-0.8-1.5-0.6C300.9,186.4,300.5,186.7,301.4,187.1z"/>
<path class="st0" d="M299.4,190.6c0,1,0.4,1.9,1.1,1.9c0.6,0,0.8-0.9,0.4-1.9c-0.4-1-0.9-1.9-1.1-1.9S299.4,189.6,299.4,190.6z"/>
<path class="st0" d="M320.7,190c-2.2,0.8-2.4,1-0.6,1c1.2,0,3.8-0.5,5.6-1c3-0.9,3-1,0.6-1C324.7,189,322.3,189.5,320.7,190z"/>
<path class="st0" d="M383.8,190.8c-1,3.2,1.6,4.8,7.7,4.9c4.1,0,5.8-0.5,6.2-1.9c0.4-1.5,0.3-1.6-0.6-0.1c-0.8,1.3-2.5,1.5-5.8,1
	c-5.6-0.8-8.1-2.9-5.6-4.7c1.2-0.9,1.2-1.3,0.2-1.3C385.2,188.8,384.3,189.6,383.8,190.8z"/>
<path class="st0" d="M391.3,189.3c0,0.3,1,0.8,2.2,1.1c1.2,0.4,2,0.1,1.6-0.5C394.6,188.8,391.3,188.2,391.3,189.3z"/>
<path class="st0" d="M331.7,191.3c1.9,1,2.5,2.3,2.7,6.6l0.1,5.4l0.4-4.8c0.6-5.2-1.1-8.4-4-8.3
	C329.7,190.1,329.9,190.5,331.7,191.3z"/>
<path class="st0" d="M313.4,192.5c-1.5,0.8-1.7,1.1-0.6,1.1c0.9,0,2.5-0.5,3.4-1.1C318.2,191,316.5,191,313.4,192.5z"/>
<path class="st0" d="M173.2,198.7c-8.7,4.5-12,14-3.9,12c6.1-1.6,12.7-5.4,11.8-6.9c-0.6-1-0.3-1.1,0.7-0.5c2.2,1.6,3.5-2.1,1.5-4.7
	C180.9,195.7,178.9,195.8,173.2,198.7z M182.8,200.1c0.9,0.6,1.5,1.3,1.1,1.4c-0.3,0-1.6,0.3-2.8,0.4c-1.2,0.3-3.5,0.8-5,1.3
	c-2.1,0.8-2.4,0.6-1.1-0.4c2.6-2,0.3-1.6-3.4,0.5c-3.7,2.1-3.9,2.6-2,3.9c0.7,0.5,0.9,0.4,0.6-0.4c-0.4-0.9,0.2-1.3,1.8-1.3
	c1.3,0.1,3.7-0.3,5.3-0.8c1.6-0.5,0.8,0.3-1.7,1.6c-4.6,2.5-9.5,3.3-9.5,1.5c0-1.6,4.7-6.3,7.8-7.7
	C177.4,198.6,180.7,198.6,182.8,200.1z"/>
<path class="st0" d="M177,201c0.8,0.4,1.8,0.3,2.1-0.1c0.4-0.4-0.2-0.8-1.5-0.6C176.4,200.2,176.1,200.6,177,201z"/>
<path class="st0" d="M355.2,202.1c-1.1,0.4-2,1.3-2,1.9c0,0.8,1,0.6,2.4-0.3c1.3-0.8,2.7-0.9,3.1-0.4c1.1,1.8,3.4,2.1,18,3.2
	c7.7,0.5,17,1.1,20.7,1.5l6.7,0.8l-7.8-1.8l-7.8-1.8l8.4,0.6c4.6,0.3,11,1.4,14,2.4l5.6,1.9l-6.2-0.6c-4.6-0.4-5.3-0.3-2.8,0.5
	c4.8,1.5,12,1.6,11.2,0.1c-1.8-3.3-24.4-7.3-46-8.1C364.2,201.7,356.2,201.7,355.2,202.1z M383.3,204.8c-2.9,0.3-8,0.3-11.2,0
	s-0.9-0.4,5.3-0.4S386.2,204.5,383.3,204.8z"/>
<path class="st0" d="M152.6,214.1c-0.8,1.4-1.1,2.9-0.8,3.2c0.2,0.3,1-0.9,1.7-2.6C155,210.8,154.2,210.4,152.6,214.1z"/>
<path class="st0" d="M421.7,217.2c0,1.4,0.3,1.8,0.7,0.8c0.3-0.9,0.2-2-0.1-2.4C421.9,215.1,421.6,215.8,421.7,217.2z"/>
<path class="st0" d="M366.1,218.9c-1.3,0.6,3.6,1.3,12.9,1.8c8.3,0.5,18.9,1.9,23.5,3.2c7.7,2,8.4,2.5,8.7,5.5
	c0.2,1.9-0.9,6.4-2.6,10c-1.7,3.9-2.2,5.9-1.2,5c2.4-2.1,6.4-14.7,5.6-17.1c-0.8-2.1-9.2-5.2-18.9-6.8
	C383.5,218.5,368.6,217.7,366.1,218.9z"/>
<path class="st0" d="M420,223.5c-0.4,1.8-0.6,3.5-0.3,3.9c0.3,0.3,0.9-1,1.2-2.9c0.4-1.8,0.6-3.5,0.3-3.9
	C420.9,220.4,420.4,221.6,420,223.5z"/>
<path class="st0" d="M98.9,231.1c-2.8,5.3-5.8,13.1-5.2,13.1c0.3,0,2.4-4,4.5-8.8C102.4,225.9,102.8,223.7,98.9,231.1z"/>
<path class="st0" d="M426.1,229.2c0,2.6,4.6,10.2,6.7,10.8c0.9,0.4,0.6-0.4-0.8-1.8c-1.3-1.3-3.3-4.3-4.1-6.7
	C427,229.2,426.2,228.1,426.1,229.2z"/>
<path class="st0" d="M286.3,235.3c-10.6,3.4-15.5,7.8-10.8,9.8c2.5,1.1,25.2-2,26.7-3.7c0.8-0.9,0.3-1-1.1-0.6
	c-6.5,2-26.3,3.4-26.3,1.8c0-0.9,1.5-1.3,5-1c2.1,0.1,2.1,0,0.1-0.9c-3.1-1.5,9.6-5.4,17.9-5.4c4.1-0.1,5.8-0.5,4.8-1.3
	C300.3,232.4,294,232.9,286.3,235.3z"/>
<path class="st0" d="M416.7,235c-0.7,1.8-0.6,1.9,0.6,0.8c0.8-0.9,1.1-1.9,0.8-2.3C417.7,233.1,417,233.7,416.7,235z"/>
<path class="st0" d="M147.1,238.7c0,1.4,0.3,1.8,0.7,0.8c0.3-0.9,0.2-2-0.1-2.4C147.3,236.5,146.9,237.3,147.1,238.7z"/>
<path class="st0" d="M298.3,237.9l-7.3,0.9l7.6,0.1c4.4,0.1,7.5-0.3,7.5-1c0-0.8-0.1-1.1-0.2-1C305.7,237,302.3,237.4,298.3,237.9z"
	/>
<path class="st0" d="M284.1,240c1,0.3,2.8,0.3,3.9,0c1-0.4,0.1-0.6-2-0.6C283.8,239.4,282.9,239.7,284.1,240z"/>
<path class="st0" d="M145.9,247.5c0,3.4,0.4,7.3,1,8.7c0.6,1.5,0.8-0.6,0.3-5.7C146.5,240.6,145.8,239,145.9,247.5z"/>
<path class="st0" d="M91.6,247.6c-0.7,1.8-0.6,1.9,0.6,0.8c0.8-0.9,1.1-1.9,0.8-2.3C92.6,245.7,91.9,246.4,91.6,247.6z"/>
<path class="st0" d="M269.4,254.5c-3.9,4.9-5,9.7-2.9,13.2c2,3.7,8,6.7,12.4,6.6c2.8-0.1,2.6-0.4-1.5-1.8c-2.6-0.9-6.1-2.6-7.7-3.9
	c-2.5-1.9-2.9-2.8-2.4-6c0.4-2.1,1.7-5.4,2.9-7.4C273.1,251,272.6,250.8,269.4,254.5z"/>
<path class="st0" d="M329.3,259.6c-1.1,2.1-1.8,4.2-1.5,4.4c0.2,0.4,1.3-1.1,2.4-3.4C332.6,255.4,331.9,254.5,329.3,259.6z"/>
<path class="st0" d="M147.2,263.1c0,1.8,0.2,2.4,0.6,1.5c0.2-0.8,0.2-2.3,0-3.2C147.4,260.7,147.2,261.3,147.2,263.1z"/>
<path class="st0" d="M310.4,265c-0.3,0.4-6.8,1-14.5,1.3c-7.6,0.4-15.4,0.9-17.2,1.4c-2.8,0.6-3,1-1.3,2c1.2,0.8,7.7,0.8,18.4-0.3
	c17.8-1.5,19.3-1.8,19.3-3.8C315.1,264.4,311.4,263.9,310.4,265z"/>
<path class="st0" d="M148.3,271.3c0,2,0.2,2.8,0.6,1.5c0.2-1.1,0.2-2.9,0-3.8C148.5,268.3,148.3,269.2,148.3,271.3z"/>
<path class="st0" d="M149.4,280.1c0,2,0.2,2.8,0.6,1.5c0.2-1.1,0.2-2.9,0-3.8C149.6,277.1,149.4,278,149.4,280.1z"/>
<path class="st0" d="M150.4,286.6c0,1.4,0.3,1.8,0.7,0.8c0.3-0.9,0.2-2-0.1-2.4C150.6,284.4,150.3,285.2,150.4,286.6z"/>
<path class="st0" d="M167.5,299.8c-10.4,2.4-28.9,9.2-31.4,11.5c-2,1.9-1.8,7.3,0.2,7.3c0.9,0,6.8-1.4,13.2-3.2
	c17.5-4.7,21.4-5.5,30.2-6.9c8.3-1.4,9.9-2.4,9.9-7.1C189.5,296.4,183.6,296,167.5,299.8z M187.1,299.5c0.9,0.6,1.3,2.1,1.1,3.4
	c-0.3,2-1.8,2.5-8.2,3.4c-4.4,0.5-14.9,2.9-23.5,5.4c-21.7,6.3-20.7,6.2-20.7,3.9c0-2.8,1.9-4,11.8-7.6c10.6-3.9,17.3-5.8,28.6-7.8
	c4.6-0.9,8.6-1.6,9-1.8C185.4,298.5,186.3,298.9,187.1,299.5z"/>
<path class="st0" d="M182.8,303.4l-2.8,1l3.1,0.1c1.7,0.1,3-0.5,3-1.1c0-0.8-0.1-1.3-0.2-1.1C185.7,302.4,184.4,302.9,182.8,303.4z"
	/>
<path class="st0" d="M145.3,311.8c-8.2,2.8-8.7,3-8.1,3.8c0.6,0.6,16.5-4.4,16.5-5.3C153.7,309.4,151.1,309.9,145.3,311.8z"/>
<path class="st0" d="M83,312.1c2.7,0.9,2.7,0.9,0.6,2c-1.2,0.5-2.9,0.9-3.8,0.8c-0.8-0.1-1.1,0.3-0.8,0.9s-0.2,1.1-1.2,1
	c-1,0-2,0.6-2.2,1.4c-0.8,2.6,2.2,1.9,6.7-1.6c4.4-3.3,4.6-5.7,0.4-5.4C80.5,311.3,80.5,311.4,83,312.1z"/>
<path class="st0" d="M359.7,324.5c0.7,0.3,2,0.3,2.8,0c0.7-0.4,0.1-0.6-1.5-0.6S358.9,324.1,359.7,324.5z"/>
<path class="st0" d="M355.2,325.8c0.8,0.4,1.8,0.3,2.1-0.1c0.4-0.4-0.2-0.8-1.5-0.6C354.7,325,354.3,325.4,355.2,325.8z"/>
<path class="st0" d="M142.7,360.3c-7.1,3.4-13.3,5.8-13.9,5.3c-0.8-0.5-0.9-0.1-0.3,0.9c0.6,1.1,0.2,1.4-1.2,0.9
	c-1.2-0.5-3.4,0-4.9,1c-1.7,1.1-2.1,1.9-1.1,1.9c0.9,0.1-0.2,1.3-2.6,2.6c-2.5,1.4-4.6,2.3-4.9,2c-0.3-0.4,0.9-1.5,2.7-2.6
	c1.7-1,2.7-1.9,2.1-2c-1.1,0-8.5,4.9-8.5,5.8c0,0.3,0.8,0.1,1.7-0.3c4.4-2,0.7,1.1-8.6,7.1c-13.2,8.3-31.5,21.9-33.5,24.8
	c-0.9,1.3,0.4,0.5,2.9-1.6c13.7-11.8,47.4-33.3,68.4-43.5c7.4-3.5,13.9-6.9,14.6-7.6C156.9,353.4,156.5,353.5,142.7,360.3z
	 M125.6,369c-0.9,0.6-2.1,1.3-2.8,1.3c-0.6,0-0.3-0.6,0.6-1.3s2.2-1.3,2.8-1.3C126.9,367.7,126.5,368.4,125.6,369z"/>
<path class="st0" d="M164.3,356.4c-1.5,0.6-1.6,1.1-0.6,1.1c0.9,0,2.7-0.5,3.9-1.1c1.5-0.6,1.6-1.1,0.6-1.1
	C167.4,355.2,165.6,355.8,164.3,356.4z"/>
<path class="st0" d="M155.4,359.5c-4.4,2.1-2.4,2.3,2.8,0c2.1-0.9,3.1-1.8,2.2-1.8C159.5,357.8,157.3,358.5,155.4,359.5z"/>
<path class="st0" d="M81.3,362.2c-2,1.8-2,1.9,0.4,0.5c1.3-0.8,2.5-1.6,2.5-1.9C84.2,359.8,83.6,360,81.3,362.2z"/>
<path class="st0" d="M145.3,364.1c-2.5,1.3-3.3,2-1.7,1.6c3.1-0.9,9-4.2,7.3-4.2C150.3,361.5,147.7,362.7,145.3,364.1z"/>
<path class="st0" d="M71,363.6c-23.1,15.9-47.4,36.2-62.4,52.1c-5,5.3-4.6,5,2.2-1.5c20.6-19.5,43.8-38.3,64.2-52.1
	c9.5-6.3,11.9-8.2,10.5-8.2C85.5,353.9,78.9,358.3,71,363.6z"/>
<path class="st0" d="M81.4,376.3C49.3,397,14.1,425.5,3.5,439.1c-1.6,2-0.2,1,2.8-2c18-18.4,48-42.1,75.6-59.7
	c11.3-7.4,20.2-13.4,19.6-13.4C100.9,363.9,91.8,369.5,81.4,376.3z"/>
<path class="st0" d="M135.7,368.4c-1.6,1-2.2,1.8-1.7,1.8c0.7,0,2.4-0.8,3.9-1.8c1.6-1,2.4-1.8,1.7-1.8
	C139.1,366.6,137.3,367.3,135.7,368.4z"/>
<path class="st0" d="M89,378.9c-13.3,10.2-27,21.7-37.3,31.5c-9.4,8.8-30.4,31.1-23,24.5c3.1-2.9,6.6-6.4,7.8-7.9
	c6.5-8.2,42.7-40,58.1-50.9c5.4-3.9,7.5-5.8,6.2-5.8C100.6,370.2,95.3,374.2,89,378.9z"/>
</svg>
