<?xml version="1.0" encoding="utf-8"?>
<!-- Generator: Adobe Illustrator 28.0.0, SVG Export Plug-In . SVG Version: 6.00 Build 0)  -->
<svg version="1.1" id="Capa_1" xmlns="http://www.w3.org/2000/svg" xmlns:xlink="http://www.w3.org/1999/xlink" x="0px" y="0px"
	 viewBox="0 0 450 470" style="enable-background:new 0 0 450 470;" xml:space="preserve">
<g transform="translate(0.000000,470.000000) scale(0.100000,-0.100000)">
	<path d="M2013.9,3394.8c-182-19-361-68-491-135c-64-34-143-106-220-204c-47-58-186-297-195-332c-6-27-8-28-78-28
		c-86,0-213-30-270-64c-57-33-132-111-167-173c-16-28-39-89-51-134c-27-107-22-293,11-408c20-69,21-75,5-92c-20-22-12-46,19-58
		c15-6,28-23,36-48c7-21,15-44,17-50c4-8-2-13-14-13c-23,0-72-67-72-99c0-51,52-110,110-124c20-5,29-19,48-74c32-93,107-228,155-280
		l40-43h137c75,0,185,5,243,11c59,6,171,14,250,19l142,9l-150-4c-93-3-164,0-188,7c-29,9-43,8-62-2c-25-13-255-18-332-7
		c-33,4-82,51-69,65c4,3,10,2,14-4s15-13,25-17c15-6,16-4,6,16c-11,20-11,21,4,8c20-16,21-12,7,25c-10,25-9,26,6,13c9-8,19-13,21-11
		c3,2,8,0,11-4c4-4,1-4-5,0c-7,4-13,2-13-3c0-10,14-15,33-12c4,1,10-6,13-14c4-8,10-15,16-15c5,0,6,6,3,12c-4,7,3,2,14-12
		s21-21,21-16s10,1,21-10c22-19,22-19,11,3c-9,17-9,22,4,27c8,3,12,11,8,17c-4,8-3,9,4,5s12-1,13,6c0,7,5,3,11-10c12-24,34-31,24-7
		c-8,21,10,19,26-2c7-10,20-20,28-22s22-6,31-8c11-3,18,3,22,19c5,18,9,20,19,10c19-19,30-14,23,11c-5,20-5,20,9-3c21-34,20-20-3,37
		c-10,26-21,64-25,83c-3,19,5,4,20-35c14-38,33-77,41-85c13-13,14-13,9,7c-5,16-2,25,14,33c21,11,29,43,8,35c-9-4-14,7-15,32
		c-1,32,0,34,6,13l8-25l8,27c4,15,4,32,0,37c-3,6-1,11,6,11c8,0,10-13,6-40c-3-27-2-38,5-33c6,3,8,1,4-5c-3-6-2-13,4-17
		c5-3,10-1,10,6s2,10,4,8s1-23-4-46c-4-24-3-43,1-43c5,0,11,17,15,38c5,32,10,38,32,39c75,4,267,24,272,29c3,4-37,3-88-1
		c-93-7-94-7-83,13c6,11,11,34,11,49c0,27,2,29,45,30c31,1,58-5,83-20c37-22,41-22,480-21l442,2l53,25c28,14,78,29,110,32
		c52,7,57,6,57-12c0-11,7-28,15-39c11-14,14-15,9-3c-3,10-1,20,5,24c6,3,11,1,11-4c0-6,5-11,10-11c6,0,10,6,10,14s4,17,9,20
		c14,9,0-48-16-61c-19-15-4-23,42-25c20-1,38-6,40-12s6-23,9-39c4-15,11-27,16-27s8,6,6,12c-12,37-15,78-6,73c6-3,10-1,10,6
		c0,18,17-1,22-24c1-10,7-17,12-17c13,2,25-21,19-37c-3-7-13-13-22-13s-22-4-30-9c-11-7-9-14,12-35l26-26l-22-5c-12-3-56-7-97-9
		s-10-2,70-1c82,1,125-1,100-5c-48-7,67-13,294-14l108-1l47,51c78,86,210,367,178,380c-7,2-149,3-315,2c-229-2-302,0-302,9
		c0,6,4,14,9,17c4,3,10,43,11,88c6,163,1,180-57,204c-38,16-90,6-113-22c-16-18-10-18,26,1c39,20,66,19,97-5c33-26,39-68,27-186
		c-13-115-39-166-97-190c-48-21-89-15-85,11c1,11,9,67,17,125c17,124,19,241,4,198l-10-27l-495,6c-344,4-571,2-749-7
		c-141-7-258-10-261-7s-8,27-12,54l-7,48l-58,3c-56,3-60,2-95-35c-20-21-42-47-47-57c-9-16-26-19-135-22c-131-4-301-19-379-34
		c-53-10-56-8-69,43l-10,37h79c94,0,220,17,234,32c7,8,4,9-8,4c-10-3-58-8-105-11l-87-4l74,9c41,6,79,14,84,19c6,6-9,5-34-1
		c-24-5-95-8-156-6c-62,2-113,0-113-4s10-9,23-11c19-4,19-4,2-5c-11-1-27,3-35,8c-25,15,6,37,80,56c51,13,92,15,188,11
		c142-6,179-23,107-50c-5-3-7-7-4-11c9-9,37,3,43,20c8,21-3,41-27,49c-56,16-233,17-301,1c-38-9-70-15-71-14c-2,2-13,47-25,100
		c-30,129-25,339,9,433c12,33,26,64,31,69s0-14-10-42c-30-78-22-228,14-278c9-12,8,4-5,52c-23,91-23,126,4,203c17,49,27,65,43,67
		l21,3l-21-42c-27-54-28-183-3-237c13-25,16-28,12-10c-22,102-24,124-15,172c24,124,124,220,261,249c143,31,299-83,327-239
		c38-215-167-379-398-317c-30,8-55,13-57,11c-2-1,20-13,49-27c40-19,68-24,128-24c95,1,169,34,231,103l41,47l-22-43
		c-51-97-191-147-345-122c-68,11-138,43-165,75c-8,9,10,2,38-16c29-18,55-30,58-26c3,3-4,11-17,17c-12,7-42,31-67,54
		c-27,24-47,36-49,29s-12-9-21-6c-13,5-11,0,6-24c64-90,211-151,336-140c91,8,130,23,198,75c50,38,70,61,98,116c33,65,35,75,35,165
		c0,85-3,103-28,153c-72,147-226,234-371,209c-107-19-210-81-274-166c-18-24-21-25-11-5c19,38,106,118,158,144c126,63,341,69,498,15
		c70-24,81-23,26,1c-24,11-43,26-43,34c0,24,39,142,75,228c19,45,32,86,28,92c-3,6-3,8,2,4c4-4,28,27,53,69c25,43,54,86,66,96
		s14,15,6,11c-13-7-13-5-2,9c8,9,24,15,35,14c14-1,21,3,19,12c-2,8,3,11,13,8c19-8,47,2,39,14c-6,11,7,11,24,1c16-11-82-56-104-48
		c-11,4-12,2-5-12c5-10,9-24,9-32c-2-32,2-50,12-50c6,0,6,9,1,23s-5,30,1,40c22,40,164,91,305,109c107,14,128,6,118-46
		c-5-28-4-29,5-7c6,13,8,32,5,42c-5,13-1,19,10,19c8,0,18,7,21,15c4,9,20,15,43,15c20,0,31,4,24,8c-6,4,62,7,150,7c95,0,143-3,117-7
		c-29-4-13-5,45-3c50,1,82,0,71-4c-17-7-17-8-2-24c10-9,22-17,27-17s7-11,3-24c-3-14-1-33,6-43c11-17,11-17,6,0c-3,10-3,29,0,43
		c5,21,12,24,51,24c24,0,79-8,121-17c87-19,107-20,142-10l25,8l-23-14l-23-13l36-17c40-19,49-21,41-8c-3,5,5,8,18,7c13,0,22-5,19-9
		c-3-5,2-7,10-5c9,2,16-1,15-7c0-11-2-11-32,1c-17,7-17,5,3-15c28-28,26-77-4-75c-11,1-76,16-144,33c-153,40-211,51-211,41
		c0-5,19-11,41-15c30-5,38-10,28-16c-10-7-6-8,11-4c46,10,257-44,277-71c7-10,13-14,13-10s7,1,15-8c8-8,15-18,15-22c0-5-5-3-12,4
		s-19,12-28,12c-10-1-6-8,13-21c44-34,70-94,70-166c0-35-5-69-11-76s-9-22-6-33c3-13-4-28-21-44l-26-24l16,44c8,23,17,68,20,99l4,56
		l-14-60l-14-60l5,60c3,43,2,56-5,45c-6-8-11-32-11-52c0-21-9-61-20-90l-20-53l-110,10c-60,6-112,14-116,17c-3,4-3,12,2,19
		c5,9,10,7,15-7c7-17,8-17,8,4c1,27-15,29-31,2c-14-22-48-25-158-13c-60,6-63,8-77,41c-33,78,40,257,130,323c50,36,40,38-12,3
		c-46-30-80-76-115-155c-34-79-40-117-23-165l14-41l-105-7c-58-3-148-6-200-6h-95l47,50c54,57,59,88,34,193c-13,53-69,127-96,127
		c-11,0-6-8,15-22c30-21,54-63,74-132c8-27,7-28-10-12c-9,9-24,16-32,16s1-9,19-20c40-24,43-65,8-107c-12-15-26-35-29-43s-6,6-6,33
		c-1,26-5,47-10,47c-4,0-6-10-4-23c3-13,0-42-7-65c-13-49-34-54-83-20c-22,16-50,24-94,26c-38,3-63,9-63,16c0,6-13,11-30,11
		c-38,0-40-15-2-16c21-1,16-4-21-14c-26-7-55-11-65-9c-22,5-59-26-72-60c-6-18-18-26-35-27c-14-1-31-2-37-3c-41-3-66,173-32,222
		c8,12,13,26,9,31c-3,5-1,12,5,16s7,11,4,17c-3,5,9,25,27,44s28,34,22,34s-16-7-23-15c-14-17-40-20-40-5c0,6,24,35,53,64
		c51,52,56,55,162,81c89,22,126,26,190,22c44-2,89-8,99-12c13-6,17-5,12,3c-3,6-28,14-54,18l-47,7l35,13c53,19,11,16-98-6
		c-155-33-272-63-272-72c0-4-20-27-44-52c-57-56-98-137-101-197c-2-26-8-56-14-67s-10-47-10-79c1-32,5-51,8-41c6,15,8,15,40,0
		c55-27,51-42-11-43c-29-1-44-3-33-6s25-10,30-15c7-8,6-9-1-5s-15,0-18-8c-4-12-2-13,12-7c58,29,265,63,503,83c206,17,748,6,884-17
		c55-10,119-18,142-18s37-3,31-7c-5-4,7-10,27-13c20-4,40-5,43-2s-4,6-16,6c-11,0-24,5-27,10c-4,6,6,10,22,10c15,0,34,4,41,9
		c8,5-14,8-56,9c-39,0-79,5-89,11c-15,8-15,10-2,11c32,0,56,44,69,122c11,68,11,83-5,130c-9,29-24,61-32,70c-12,14-13,21-4,32
		s7,18-14,34c-15,12-21,23-15,27c5,3,10,21,10,40c0,68,26,51,80-52c18-35,37-60,43-56c5,3,7,1,4-4c-4-6,4-35,17-65
		c31-71,86-226,86-243c0-8-12-22-27-30c-16-9-19-13-8-9c148,50,337,67,442,41c92-24,146-53,202-109c28-28,51-46,51-40
		c0,15-98,100-140,122c-72,37-142,51-257,51c-74,0-113,4-113,11c0,20-143,261-188,317c-69,87-143,160-187,186
		C2719.9,3363.8,2340.9,3427.8,2013.9,3394.8z M2413.9,3370.8c174-22,281-47,407-96c132-51,151-69,264-251c74-118,167-304,157-313
		c-1-2-14-6-28-10c-24-5-26-2-50,77c-31,105-127,296-185,369c-51,64-123,104-245,137c-381,103-895,84-1179-43c-67-31-101-67-168-180
		c-61-101-110-213-136-305l-22-81l-55,7c-30,4-57,8-60,11c-9,8,167,308,207,351c22,24,21,22-5-18c-76-117-159-295-150-322
		c3-7,11,5,18,27c30,96,149,303,252,441c40,53,74,74,219,128c121,45,358,83,529,85C2241.9,3385.8,2345.9,3378.8,2413.9,3370.8z
		 M1846.9,3298.8c-7-2-19-2-25,0c-7,3-2,5,12,5S1852.9,3301.8,1846.9,3298.8z M1981.9,3296.8c9-5-13-8-55-8c-54-1-61,1-33,7
		C1943.9,3306.8,1966.9,3306.8,1981.9,3296.8z M1818.9,3285.8l20-9h-20c-11,0-29,4-40,9l-20,9h20
		C1789.9,3294.8,1807.9,3290.8,1818.9,3285.8z M2663.9,3286.8c23-2,24-3,5-11c-26-11-47-12-41-2c3,5-33,7-79,5c-46-1-86,1-89,5
		C2455.9,3290.8,2594.9,3292.8,2663.9,3286.8z M1768.9,3274.8c16-7,13-8-13-4c-20,3-31,1-27-5c3-6,1-10-4-10c-12,0-14,13-4,23
		C1728.9,3287.8,1743.9,3286.8,1768.9,3274.8z M2703.9,3265.8c-8-5-22-9-30-9c-10,0-8,3,5,9
		C2705.9,3277.8,2721.9,3277.8,2703.9,3265.8z M1681.9,3256.8c18-11-29-24-54-14c-16,6-16,7,2,14
		C1655.9,3266.8,1666.9,3266.8,1681.9,3256.8z M2743.9,3255.8c-20-13-33-13-25,0c3,6,14,10,23,10
		C2756.9,3265.8,2756.9,3263.8,2743.9,3255.8z M2783.9,3245.8c-8-5-22-10-30-10c-13,0-13,1,0,10c8,5,22,10,30,10
		C2796.9,3255.8,2796.9,3254.8,2783.9,3245.8z M2875.9,3216.8c7-6-14-7-62-2c-13,1-13,2,0,11
		C2828.9,3234.8,2861.9,3230.8,2875.9,3216.8z M3147.9,2973.8c29-46,74-122,100-170c42-78,45-88,28-88c-14,0-24,13-37,48
		c-25,65-81,177-121,240c-19,28-31,52-29,52C3091.9,3055.8,3117.9,3018.8,3147.9,2973.8z M1468.9,2919.8c-24-49-40-177-28-219
		c12-39,8-42-25-19c-27,19-28,48-3,97c10,20,14,37,9,37c-13,0-1,52,23,109c13,30,23,41,29,35
		C1480.9,2952.8,1478.9,2939.8,1468.9,2919.8z M3117.9,2865.8c3-14-3-7-13,15c-11,22-20,45-20,50
		C3084.9,2945.8,3110.9,2893.8,3117.9,2865.8z M1312.9,2866.8c-6-18-13-30-15-28s1,18,7,36s13,30,15,28S1318.9,2884.8,1312.9,2866.8
		z M3158.9,2749.8c4-25,3-24-8,6c-8,19-17,46-20,60c-5,19-3,17,8-6C3145.9,2792.8,3154.9,2765.8,3158.9,2749.8z M1268.9,2745.8
		c-13-41-24-70-24-64c-1,16,40,147,44,142C1290.9,2821.8,1281.9,2786.8,1268.9,2745.8z M2920.9,2723.8c-3-8-6-5-6,6c-1,11,2,17,5,13
		C2922.9,2739.8,2923.9,2730.8,2920.9,2723.8z M1663.9,2679.8c0-14-30-34-52-34c-8,0-14,9-15,20s2,18,8,15c5-4,9,0,9,9
		c0,8,6,16,13,19C1641.9,2713.8,1663.9,2697.8,1663.9,2679.8z M1768.9,2708.8c-11-2-35-8-52-13c-18-5-33-6-33-4c0,9,46,23,75,22
		C1778.9,2713.8,1781.9,2711.8,1768.9,2708.8z M1873.9,2705.8c0-13-11-13-30,0c-12,8-11,10,8,10
		C1863.9,2715.8,1873.9,2711.8,1873.9,2705.8z M3170.9,2693.8c-3-8-6-5-6,6c-1,11,2,17,5,13
		C3172.9,2709.8,3173.9,2700.8,3170.9,2693.8z M1848.9,2680.8c-17-7-169-24-174-20c-11,11,51,24,114,24
		C1827.9,2683.8,1854.9,2682.8,1848.9,2680.8z M1085.9,2607.8c60-26,137-102,168-167c43-88,37-253-10-282c-17-11-17-9,1,38
		c41,107,17,218-66,308c-123,132-287,142-438,27c-19-14-37-23-42-18c-5,4-5,2-2-5c7-11-42-58-51-49c-9,10,51,72,105,108
		c30,21,76,45,101,53C915.9,2640.8,1025.9,2634.8,1085.9,2607.8z M1404.9,1615.8c4-107,7-201,8-208c2-22,21-2,21,22v22l288,12
		c158,7,488,13,735,13c246,1,447,6,447,10c0,19-876,15-1235-5c-126-7-233-11-237-9c-5,2-8,53-8,112v108l128,9c70,4,409,8,755,9h627
		v-25c-1-44-28-259-35-269c-8-13,27-31,60-31c42,0,96,31,117,67l20,33h271h271l-69-33c-155-75-297-102-468-92
		c-306,18-970,13-1531-11c-112-5-157-4-153,3c5,8-11,9-51,6c-52-5-61-3-80,17c-29,32-63,165-63,254c-1,79,12,116,53,152
		c30,28,46,33,88,31l35-2L1404.9,1615.8z M711.9,1768.8c-10-2-26-2-35,0c-10,3-2,5,17,5S720.9,1771.8,711.9,1768.8z M1199.9,1610.8
		l1-85h-33c-19,0-34-4-34-10c0-5,17-10,39-10c29,0,40-5,43-18c5-17-6-18-166-20c-94-1-182-4-196-7c-82-17-172-23-193-11
		c-68,36-97,71-97,116c0,33,33,78,62,84c63,12,399,41,523,44l50,2L1199.9,1610.8z M1238.9,1407.8c9-23,26-49,38-57c21-15,21-15-8-16
		c-82-3-159,5-245,28c-83,21-200,65-200,75c0,2,55,5,123,7c67,1,123,3,124,4s35,2,77,2h75L1238.9,1407.8z M3687.9,1413.8
		c-39-111-184-351-202-333c-3,3,6,18,20,33c47,51,107,157,162,285C3696.9,1465.8,3709.9,1474.8,3687.9,1413.8z M721.9,1387.8
		c19-62,106-234,146-285c21-27,35-51,33-54c-16-15-142,201-187,319c-23,61-22,58-12,58C706.9,1425.8,715.9,1408.8,721.9,1387.8z
		 M797.9,1379.8c3-8,2-12-4-9s-10,10-10,16C783.9,1400.8,790.9,1397.8,797.9,1379.8z M1350.9,1339.8c-3-3-12-4-19-1c-8,3-5,6,6,6
		C1348.9,1345.8,1354.9,1342.8,1350.9,1339.8z M3026.9,1321.8c-3-13,0-27,6-30c6-4,11,0,11,8s4,17,9,21c6,3,6-7,1-26
		c-5-18-7-37-4-43s-4,0-15,13c-21,23-29,81-12,81C3026.9,1345.8,3028.9,1334.8,3026.9,1321.8z M1533.9,1312.8c0-16-3-17-15-7
		c-8,7-15,16-15,20c0,3,7,7,15,7S1533.9,1323.8,1533.9,1312.8z M1440.9,1293.8c-3-7-5-2-5,12s2,19,5,13
		C1442.9,1311.8,1442.9,1299.8,1440.9,1293.8z M1497.9,1290.8c5-22,4-26-4-15c-5,8-10,24-10,34
		C1483.9,1335.8,1489.9,1327.8,1497.9,1290.8z M2268.9,1311.8c17-1-75-4-203-4c-128-1-231,1-229,6
		C1841.9,1319.8,2200.9,1318.8,2268.9,1311.8z M2501.9,1318.8c-38-2-98-2-135,0c-38,2-7,3,67,3S2538.9,1320.8,2501.9,1318.8z
		 M2955.9,1300.8c3-13,1-22-3-19c-9,5-13,44-5,44C2949.9,1325.8,2953.9,1314.8,2955.9,1300.8z M3114.9,1255.8c-10-30-22-64-27-74
		c-5-13-4-17,3-13c6,4,13,1,16-5c3-10,7-10,20,1c17,13,18,13,21-11c1-16,36-23,36-8c0,6,4,9,9,6c4-3,19,3,31,14c28,25,41,26,34,3
		c-4-12,1-10,14,6l20,24l-3-26c-2-15,1-27,7-27s8,7,5,15c-4,8-2,17,4,20c5,4,9,3,8-2c-4-21,2-24,18-12c17,13,17,13,0-13
		c-23-37-22-39,13-22c17,9,30,21,30,27c0,8,3,7,9-2c7-11,11-9,20,8c7,12,16,19,21,16s21,7,35,22l27,28l-15-30c-11-22-12-33-3-40
		c13-12,46-8,46,6c0,5,5,9,11,9s2-14-9-32c-13-21-29-32-48-34c-16-2-54-6-84-9c-81-10-97-10-180,4c-41,7-94,14-118,16
		c-41,3-72,18-72,36c0,5,6,6,13,3c23-8,55,33,78,103c12,37,24,63,26,58C3132.9,1314.8,3125.9,1285.8,3114.9,1255.8z M3150.9,1303.8
		c-3-8-6-5-6,6c-1,11,2,17,5,13C3152.9,1319.8,3153.9,1310.8,3150.9,1303.8z M1267.9,1221.8c9-27,14-51,12-53s-13,24-25,58
		c-12,35-17,59-12,54C1246.9,1274.8,1258.9,1248.8,1267.9,1221.8z M1450.9,1243.8c-3-7-5-2-5,12s2,19,5,13
		C1452.9,1261.8,1452.9,1249.8,1450.9,1243.8z M1539.9,1259.8c-3-9-6-18-6-20s-9-4-20-4c-25,0-25,9-2,26
		C1534.9,1279.8,1546.9,1278.8,1539.9,1259.8z M3114.9,1198.8c-12-20-14-14-5,12c4,9,9,14,11,11
		C3123.9,1219.8,3120.9,1208.8,3114.9,1198.8z M3509.9,1193.8c5-7,3-8-6-3c-9,6-12,4-8-7c4-8,0-15-7-15c-10,0-11,5-4,19
		C3495.9,1208.8,3499.9,1209.8,3509.9,1193.8z"/>
	<path d="M2608.9,1548.8c-82-2-152-7-155-12s-63-5-135-1c-114,7-693,3-830-5c-27-2-51-8-53-15c-3-9,20-10,94-5c55,4,290,8,524,10
		c234,1,427,4,430,4c3,1,75,2,160,2c177,1,265,8,235,20c-11,4-42,7-70,6C2781.9,1551.8,2691.9,1549.8,2608.9,1548.8z"/>
	<path d="M1259.9,1488.8c11-53,37-103,56-109c31-10,34,5,6,29c-15,12-32,41-39,65C1269.9,1519.8,1249.9,1532.8,1259.9,1488.8z"/>
	<path d="M3351.9,1459.8c-37-19-38-54-3-54c25,0,85,25,85,36c0,2-13-2-30-11c-35-18-73-20-68-2c3,6,20,20,39,29s27,17,19,17
		S3366.9,1467.8,3351.9,1459.8z"/>
	<path d="M623.9,1494.8c39-33,40-33,237-10c44,6,118,11,162,12c45,1,81,6,81,10c0,12-90,11-255-3c-125-10-146-9-190,5
		C590.9,1532.8,583.9,1529.8,623.9,1494.8z"/>
	<path d="M1028.9,1415.8c-8-13,3-30,18-29c9,0,9,2,0,6c-18,7-16,21,5,26c15,4,15,5,0,6C1042.9,1424.8,1031.9,1421.8,1028.9,1415.8z"
		/>
	<path d="M1088.9,1403.8c19-12,19-12-5-19l-25-7l28-1c15-1,27,3,27,7c0,12-22,32-34,32C1073.9,1415.8,1077.9,1409.8,1088.9,1403.8z"
		/>
	<path d="M2183.9,3290.8c19-23,4-32-61-37c-61-4-82-17-76-48c2-12,27-15,139-17c154-2,187,8,151,44c-13,13-35,20-73,22
		c-30,1-57,4-59,7c-3,3,1,15,8,27c13,20,13,21-2,8c-11-9-17-10-17-2c0,6-5,11-11,11C2174.9,3305.8,2174.9,3301.8,2183.9,3290.8z
		 M2309.9,3231.8c10-8,16-18,12-22c-11-11-230-6-241,5c-17,17,32,29,124,30C2263.9,3244.8,2296.9,3240.8,2309.9,3231.8z"/>
	<path d="M2501.9,3168.8c7-3,16-2,19,1c4,3-2,6-13,5C2496.9,3174.8,2493.9,3171.8,2501.9,3168.8z"/>
	<path d="M2410.9,3149.8c-17-9-36-35-51-68c-23-52-70-101-87-90c-5,3-9,1-9-5c0-5-6-12-12-14c-15-5,30,2,87,13c22,5,41,7,43,6
		c1-2-9-36-24-75c-22-60-25-76-15-97c6-14,11-45,11-69c0-27,5-45,11-45c8,0,9,14,5,43c-6,37-1,74,19,167l6,25l-12-25
		c-6-14-14-43-19-65l-8-40l-1,35c-1,43,29,126,40,109c5-8,13,1,23,25c9,21,14,41,11,45c-8,13,69,78,107,92c36,12,35,29-2,29
		c-13,0-13-1,0-10c8-5,11-10,7-10c-5,0-20,9-34,20C2476.9,3169.8,2448.9,3170.8,2410.9,3149.8z M2491.9,3146.8c11-7,10-10-3-15
		c-9-3-15-11-13-18c5-15-48-61-87-77c-28-10-28-11-3-6c30,6,47-11,28-28c-10-9-12-8-7,5c4,12,2,15-8,11c-8-3-13-8-11-12
		c2-3-11-6-30-7c-30,0-32,1-20,15c7,9,25,39,41,67C2411.9,3145.8,2455.9,3169.8,2491.9,3146.8z"/>
	<path d="M1883.9,3117.8c50-17,133-59,170-86c8-6,4,2-10,18c-33,37-113,76-170,82l-45,5L1883.9,3117.8z"/>
	<path d="M2589.9,3048.8c16-65,61-126,116-154c56-29,59-17,3,15c-47,28-89,81-100,129c-4,15-11,30-17,33
		C2586.9,3074.8,2585.9,3065.8,2589.9,3048.8z"/>
	<path d="M2962.9,3058.8c-13-16-12-17,4-4c9,7,17,15,17,17C2983.9,3079.8,2975.9,3074.8,2962.9,3058.8z"/>
	<path d="M1753.9,3024.8c43-29,93-49,139-55s55-11,83-50c17-24,33-44,35-44c11,0-7,42-28,67c-21,24-41,34-100,47
		c-41,10-87,24-103,32C1745.9,3037.8,1731.9,3039.8,1753.9,3024.8z"/>
	<path d="M1643.9,3019.8c0-1,15-13,34-28c25-19,50-27,97-31c70-6,64,8-8,19c-48,7-94,26-88,35c2,4-5,7-16,7
		C1652.9,3021.8,1643.9,3020.8,1643.9,3019.8z"/>
	<path d="M2106.9,3008.8c9-2,23-2,30,0c6,3-1,5-18,5C2102.9,3013.8,2096.9,3011.8,2106.9,3008.8z"/>
	<path d="M2198.9,3005.8c-6-11,42-26,52-16c4,3-2,6-13,6c-16,0-17,2-4,10c12,8,11,10-7,10
		C2214.9,3015.8,2201.9,3011.8,2198.9,3005.8z"/>
	<path d="M1575.9,2996.8c7-25,70-51,118-50c25,1,34,3,20,5c-52,8-106,27-124,42C1575.9,3006.8,1571.9,3006.8,1575.9,2996.8z"/>
	<path d="M2702.9,2988.8c12-25,75-76,114-94c15-7,26-15,24-18c-45-80-57-146-27-146c18,0,52,89,46,123c-2,12,1,22,5,22c5,0,8,3,8,8
		c-3,20,3,21,31,7c55-28,55-15,0,17c-30,17-75,47-100,66c-43,32-42,32,8-16c30-28,49-53,43-56c-16-10-83,28-125,71
		C2706.9,2995.8,2695.9,3001.8,2702.9,2988.8z M2842.9,2821.8c-9-8-10-7-5,7c3,10,7,24,7,30c1,7,3,4,6-7
		C2853.9,2841.8,2849.9,2828.8,2842.9,2821.8z M2833.9,2766.8c0-8-19-37-21-31c0,3-2,12-4,21c-1,9,4,16,11,16
		C2827.9,2772.8,2833.9,2769.8,2833.9,2766.8z"/>
	<path d="M2540.9,2917.8c-26-37-48-115-39-140c7-23,22-12,16,13c-4,15-2,25,5,25c6,0,8-7,4-17s-2-14,4-10c14,9,37,103,30,121
		c-3,7,0,19,6,25s8,13,5,16S2554.9,2938.8,2540.9,2917.8z M2549.9,2868.8c-11-11-17,4-9,23c7,18,8,18,11,1
		C2553.9,2882.8,2552.9,2871.8,2549.9,2868.8z"/>
	<path d="M1859.9,2914.8c-17-13-26-30-25-47c1-26,1-26,10,5c23,81,124,59,107-23c-5-27-52-57-77-49c-11,3-20,9-18,13c2,8-7,12-25,12
		c-6,0-3-9,7-20c28-31,78-26,109,11c32,38,33,63,1,94C1918.9,2940.8,1894.9,2941.8,1859.9,2914.8z"/>
	<path d="M1508.9,2860.8c-24-23-36-85-16-85c4,0,6,11,3,26c-6,34,33,77,62,68c57-17,74-74,33-112c-26-24-48-27-79-11
		c-16,8-19,8-16-2c2-7,17-17,32-22c33-11,73,13,94,56c11,23,11,31-4,56c-16,27-51,51-75,51
		C1537.9,2885.8,1521.9,2874.8,1508.9,2860.8z"/>
	<path d="M1998.9,2855.8c3-5,8-10,11-10c2,0,4,5,4,10c0,6-5,10-11,10C1997.9,2865.8,1995.9,2861.8,1998.9,2855.8z"/>
	<path d="M3386.9,2681.8c-89-29-179-109-223-201c-21-42-25-64-25-145c0-84,3-102,29-158c33-71,97-136,173-173c42-21,62-24,159-24
		c106,0,113,1,177,34c64,32,147,107,147,132c0,8-4,8-15-1c-12-10-15-9-15,5c0,13-15,4-54-34c-49-45-88-68-71-41c8,13,5,13-45-5
		c-49-17-158-20-212-5c-70,20-130,71-165,141c-38,76-44,108-31,180c35,193,239,294,415,205c135-68,202-202,169-341
		c-17-69-14-83,5-28c22,62,18,180-9,230c-16,30-18,43-9,46c7,3,6,6-4,6c-16,1-34,27-30,44c1,5-4,7-11,5c-7-3-32,10-56,28
		c-79,61-200,80-298,47c-70-24-154-110-183-188c-56-147,8-307,153-383c44-23,63-27,141-27c69,0,98,4,124,18c22,13,36,15,40,8
		s28,2,64,24c31,19,57,33,57,31c0-3-22-20-48-40c-84-61-230-83-338-51c-62,18-160,85-156,107c1,9-11,30-27,47c-42,45-54,91-49,180
		c6,91,29,142,100,217c67,71,131,99,228,98c229,0,410-221,356-433c-20-77-20-84,1-46c24,44,30,190,9,239c-9,22-14,41-12,43
		c8,9,47-111,56-175c15-103,12-177-11-298l-21-111l-51,14c-71,19-268,13-317-10c-34-17-35-17-5-12c140,25,358,13,386-22
		c27-31-6-38-183-38c-111,1-160-2-142-8c16-5,88-9,160-10l131-2l-13-39c-16-45-17-54-5-41c5,6,14,26,20,46c7,22,21,41,36,47
		c28,13,33,46,10,60c-14,7-13,18,5,96c37,154,26,360-25,482c-18,44-55,97-63,90c-3-3-27,15-54,40c-72,67-164,107-257,111
		C3458.9,2694.8,3411.9,2689.8,3386.9,2681.8z M3833.9,2505.8c6-11,8-20,6-20c-3,0-10,9-16,20s-8,20-6,20
		C3820.9,2525.8,3827.9,2516.8,3833.9,2505.8z"/>
	<path d="M3505.9,2513.8c-2-78-5-98-17-98c-19,0-55-40-55-61c0-10-8-20-17-23c-16-4-133-20-158-21c-5,0-15,18-21,40l-12,40l-1-32
		c-1-52,19-130,41-158c26-34,34-26,12,12s-13,60,31,78c56,24,114,20,137-11c16-20,28-24,56-22c47,4,56,28,9,28c-20,0-41,7-50,18
		c-18,20-23,57-9,66c5,3,7-8,4-23c-2-16,0-31,5-34s9,13,8,36c0,31,4,43,17,45c13,3,18-6,21-40l4-43l1,43c1,29,6,42,16,42
		c21,0,46-28,46-51c0-15,7-19,33-19c48-1,120-19,139-37c28-25,16-89-24-131c-29-30-30-33-8-21c14,7,30,13,35,14c6,0,10,5,11,10
		c0,6,6,28,13,50c18,58,12,87-24,105c-30,15-30,16-29,95v80l-3-79l-4-78l-31,6c-17,3-46,6-64,6c-22,0-34,5-34,13c0,16-42,57-58,57
		c-7,0-12,33-15,98l-3,97L3505.9,2513.8z"/>
	<path d="M2215.9,2565.8c0-19,2-27,5-17c2,9,2,25,0,35C2217.9,2592.8,2215.9,2584.8,2215.9,2565.8z"/>
	<path d="M3387.9,2470.8c0-66,1-92,3-57c2,34,2,88,0,120C3388.9,2564.8,3387.9,2536.8,3387.9,2470.8z"/>
	<path d="M1044.9,2539.8c0-11,3-14,6-6c3,7,2,16-1,19C1046.9,2556.8,1043.9,2550.8,1044.9,2539.8z"/>
	<path d="M1364.9,2519.8c0-11,3-14,6-6c3,7,2,16-1,19C1366.9,2536.8,1363.9,2530.8,1364.9,2519.8z"/>
	<path d="M3074.9,2519.8c0-11,3-14,6-6c3,7,2,16-1,19C3076.9,2536.8,3073.9,2530.8,3074.9,2519.8z"/>
	<path d="M3671.9,2515.8c22-25,15-43-15-36c-23,5-25,4-10-5c38-23,65,15,30,42C3661.9,2527.8,3660.9,2527.8,3671.9,2515.8z"/>
	<path d="M862.9,2478.8c-13-16-12-17,4-4c9,7,17,15,17,17C883.9,2499.8,875.9,2494.8,862.9,2478.8z"/>
	<path d="M1355.9,2470.8c0-16,2-22,5-12c2,9,2,23,0,30C1357.9,2494.8,1355.9,2487.8,1355.9,2470.8z"/>
	<path d="M3085.9,2435.8c-2-39-10-82-22-108c-11-23-15-40-10-37c21,13,41,93,37,150l-3,60L3085.9,2435.8z"/>
	<path d="M3793.9,2489.8c0-6,7-19,16-30c14-18,14-18,3,6C3798.9,2496.8,3793.9,2501.8,3793.9,2489.8z"/>
	<path d="M757.9,2460.8c-4-14-4-28-1-31c7-8,75,15,82,26c3,5-10,3-29-5c-47-20-49-19-42,10c4,14,4,25,1,25
		C766.9,2485.8,761.9,2474.8,757.9,2460.8z"/>
	<path d="M1057.9,2390.8c0-49,1-71,3-48s2,64,0,90S1057.9,2440.8,1057.9,2390.8z"/>
	<path d="M1156.9,2430.8c0-22,2-30,4-17c2,12,2,30,0,40C1157.9,2462.8,1155.9,2452.8,1156.9,2430.8z"/>
	<path d="M3273.9,2410.8l-5-60l-17,35c-12,24-16,27-12,10c12-50,31-60,108-58l71,2l-67,3l-67,4l-3,62l-4,62L3273.9,2410.8z"/>
	<path d="M726.9,2375.8c0-47,2-66,4-42c2,23,2,61,0,85C728.9,2441.8,726.9,2422.8,726.9,2375.8z"/>
	<path d="M2158.9,2434.8c-11-17,3-23,20-9c22,18,119,8,145-15c24-22,26-51,4-59c-26-10-29-7-8,9c18,14,17,15-11,8
		c-41-11-139-6-167,7c-22,11-22,10-4-4c11-9,24-16,30-16c5,0,7-2,4-5s-17-1-32,4c-30,12-35,45-8,60c9,6,12,11,5,11
		c-17,0-43-40-36-57c15-38,167-58,223-30c39,20,34,65-10,88C2275.9,2447.8,2169.9,2452.8,2158.9,2434.8z M2271.9,2338.8
		c-15-2-42-2-60,0s-6,4,27,4S2286.9,2340.8,2271.9,2338.8z"/>
	<path d="M825.9,2410.8c0-16,2-22,5-12c2,9,2,23,0,30C827.9,2434.8,825.9,2427.8,825.9,2410.8z"/>
	<path d="M3763.9,2420.8c0-5,5-17,10-25s10-10,10-5c0,6-5,17-10,25S3763.9,2426.8,3763.9,2420.8z"/>
	<path d="M3834.9,2379.8c0-11,3-14,6-6c3,7,2,16-1,19C3836.9,2396.8,3833.9,2390.8,3834.9,2379.8z"/>
	<path d="M664.9,2354.8c-6-18-10-44-10-58c1-21,3-20,8,9c4,19,11,45,15,58c4,12,5,22,3,22C677.9,2385.8,670.9,2371.8,664.9,2354.8z"
		/>
	<path d="M901.9,2369.8c-15-8-30-25-33-37c-5-19-16-24-77-34c-117-18-150-61-109-141c11-22,19-41,18-43s0-3,2-2s13-4,25-12
		c36-26,38-16,3,15c-29,25-34,36-36,80c-1,48,4,56,32,51c5-1,6,3,3,8c-7,10,69,31,113,31c25,0,30,4,33,27c4,37,47,61,84,48
		c15-6,29-16,32-24s1-11-4-8s-10-6-10-19c-2-30,13-32,19-1l4,22l2-22c0-13-9-33-20-44c-18-18-29-20-65-15s-42,3-37-10
		c4-11,8-12,13-4s11,6,20-5c20-24,59-18,88,15c30,35,79,40,137,15c40-16,50-34,41-71c-6-23-9-24-24-12s-16,11-4-4c8-9,11-23,7-30
		s3-2,14,10c22,25,51,110,51,148c0,12-3,35-6,52c-5,24-9,28-19,19c-7-7-11-15-8-19c2-5,1-13-3-20c-5-8-10-6-15,8c-7,17-8,17-8-3
		c-1-13-7-23-15-23s-17-4-20-9c-10-16,38,1,62,22c24,22,28,13,12-27c-8-22-13-24-47-19c-21,3-39,9-41,13s-23,5-47,2
		c-43-4-46-3-56,27c-6,18-24,38-40,46C938.9,2388.8,935.9,2388.8,901.9,2369.8z"/>
	<path d="M1354.9,2365.8c0-14,7-36,15-50c10-17,13-18,8-5c-3,11-10,34-14,50C1356.9,2387.8,1355.9,2388.8,1354.9,2365.8z"/>
	<path d="M3785.9,2345.8c0-19,2-27,5-17c2,9,2,25,0,35C3787.9,2372.8,3785.9,2364.8,3785.9,2345.8z"/>
	<path d="M605.9,2345.8c0-14,2-19,5-12c2,6,2,18,0,25C607.9,2364.8,605.9,2359.8,605.9,2345.8z"/>
	<path d="M936.9,2320.8c0-22,2-30,4-17c2,12,2,30,0,40C937.9,2352.8,935.9,2342.8,936.9,2320.8z"/>
	<path d="M3483.9,2304.8c0-5,9-9,20-9s20,2,20,4s-9,6-20,9S3483.9,2309.8,3483.9,2304.8z"/>
	<path d="M3376.9,2215.8c0-47,2-66,4-42c2,23,2,61,0,85C3378.9,2281.8,3376.9,2262.8,3376.9,2215.8z"/>
	<path d="M3560.9,2288.8c-4-3-7-11-7-17s5-5,12,2c6,6,9,14,7,17C3569.9,2293.8,3563.9,2292.8,3560.9,2288.8z"/>
	<path d="M953.9,2275.8c0-6-8-10-17-11c-10,0-13-3-7-5c6-3,21-1,34,4c19,7,21,10,7,15C960.9,2282.8,953.9,2280.8,953.9,2275.8z"/>
	<path d="M1389.9,2272.8c3-10,9-15,12-12s0,11-7,18C1384.9,2287.8,1383.9,2286.8,1389.9,2272.8z"/>
	<path d="M1066.9,2210.8c0-33,2-45,4-27s2,45,0,60S1066.9,2243.8,1066.9,2210.8z"/>
	<path d="M2023.9,2255.8c-188-8-308-20-462-47c-94-16-98-16-120,2c-15,12-13,8,5-10l27-30l128,2c70,1,400,4,733,6
		c646,5,642,5,680,54c12,16,12,16-8-1c-22-18-26-18-130-2c-108,17-461,37-603,34C2232.9,2262.8,2119.9,2259.8,2023.9,2255.8z
		 M2845.9,2222.8c54-7,101-17,105-21c5-5-14-5-42-1c-81,13-942,14-1140,1c-144-9-168-12-120-17c44-4,32-5-47-5c-59,0-106,2-104,3
		c12,12,297,47,461,57C2095.9,2247.8,2752.9,2234.8,2845.9,2222.8z M2026.9,2198.8c-29-2-78-2-110,0s-8,3,52,3
		C2029.9,2201.8,2055.9,2200.8,2026.9,2198.8z M2766.9,2198.8c-23-2-64-2-90,0s-7,3,42,3C2768.9,2201.8,2789.9,2200.8,2766.9,2198.8
		z M1831.9,2188.8c-15-2-42-2-60,0s-6,4,27,4S1846.9,2190.8,1831.9,2188.8z"/>
	<path d="M2176.9,2218.8c31-2,83-2,115,0c31,2,5,3-58,3S2144.9,2220.8,2176.9,2218.8z"/>
	<path d="M2436.9,2218.8c31-2,83-2,115,0c31,2,5,3-58,3S2404.9,2220.8,2436.9,2218.8z"/>
	<path d="M734.9,2219.8c0-11,3-14,6-6c3,7,2,16-1,19C736.9,2236.8,733.9,2230.8,734.9,2219.8z"/>
	<path d="M3495.9,2205.8c0-19,2-27,5-17c2,9,2,25,0,35C3497.9,2232.8,3495.9,2224.8,3495.9,2205.8z"/>
	<path d="M3308.9,2203.8c11-6,23-16,27-22c5-8,8-7,8,1c0,7-9,17-19,23C3297.9,2219.8,3283.9,2217.8,3308.9,2203.8z"/>
	<path d="M945.9,2185.8c0-14,2-19,5-12c2,6,2,18,0,25C947.9,2204.8,945.9,2199.8,945.9,2185.8z"/>
	<path d="M1113.9,2160.8c-6-8-10-19-8-24c1-6,8,1,15,14C1133.9,2178.8,1131.9,2181.8,1113.9,2160.8z"/>
	<path d="M3328.9,2155.8c-7-11,52-50,75-50c8,0-4,9-28,20s-41,24-37,30c3,5,4,10,1,10S3331.9,2161.8,3328.9,2155.8z"/>
	<path d="M955.9,2130.8c0-16,2-22,5-12c2,9,2,23,0,30C957.9,2154.8,955.9,2147.8,955.9,2130.8z"/>
	<path d="M3485.9,2130.8c0-16,2-22,5-12c2,9,2,23,0,30C3487.9,2154.8,3485.9,2147.8,3485.9,2130.8z"/>
	<path d="M2013.9,2134.8c-130-11-280-36-296-50c-19-15-22-53-13-146c9-82,20-113,41-113c7,0,6,5,0,13c-14,16-29,170-22,212
		c5,30,5,30,120,48c92,15,181,19,440,20c313,2,418-3,450-23c11-7,14-29,12-96c-1-48-4-96-7-108c-2-11,2-7,10,9c18,38,20,175,3,197
		c-7,9-42,21-78,28C2590.9,2140.8,2151.9,2146.8,2013.9,2134.8z"/>
	<path d="M1081.9,2096.8c-52-24-62-37-13-17c22,10,44,21,50,27C1130.9,2118.8,1125.9,2117.8,1081.9,2096.8z"/>
	<path d="M1953.9,1854.8c-223-11-236-19-20-13c260,8,634,8,728-1c50-4,82-3,82,2C2743.9,1865.8,2303.9,1871.8,1953.9,1854.8z"/>
	<path d="M3473.9,1845.8c6-11,20-20,33-19h22l-22,11c-13,6-23,15-23,20c0,4-5,8-10,8C3466.9,1865.8,3466.9,1859.8,3473.9,1845.8z"/>
	<path d="M3847.9,1844.8c-5-8-48-10-143-7c-75,2-122,1-106-3c38-8,238-11,259-3c9,3,16,10,16,15
		C3873.9,1859.8,3855.9,1857.8,3847.9,1844.8z"/>
	<path d="M3158.9,1725.8c-16-4-28-8-25-9s95-3,205-6c110-2,234-9,275-14c41-6,102-10,135-11c67,0,125-27,125-58c0-28-51-81-95-97
		l-40-15l35,5c39,6,74,29,103,67c27,36,16,75-26,92C3758.9,1717.8,3256.9,1750.8,3158.9,1725.8z"/>
	<path d="M3768.9,1565.8c-28-18-45-19-327-17c-164,2-295,0-291-4c5-4,139-9,298-10c295-1,362,5,373,39
		C3827.9,1591.8,3802.9,1588.8,3768.9,1565.8z"/>
	<path d="M3059.9,1531.8c-19-48-49-82-65-71c-17,10-51-4-51-21c0-20,37-17,76,7c26,15,37,33,49,71
		C3087.9,1581.8,3081.9,1590.8,3059.9,1531.8z"/>
	<path d="M2631.9,1258.8c7-3,16-2,19,1c4,3-2,6-13,5C2626.9,1264.8,2623.9,1261.8,2631.9,1258.8z"/>
	<path d="M2711.9,1258.8c17-2,47-2,65,0c17,2,3,4-33,4S2693.9,1260.8,2711.9,1258.8z"/>
	<path d="M2826.9,1258.8c9-2,23-2,30,0c6,3-1,5-18,5C2822.9,1263.8,2816.9,1261.8,2826.9,1258.8z"/>
	<path d="M2881.9,1208.8c12-2,32-2,45,0c12,2,2,4-23,4S2868.9,1210.8,2881.9,1208.8z"/>
	<path d="M1543.9,1185.8c-58-3,32-4,200-2c168,3,307,6,309,8C2058.9,1197.8,1663.9,1192.8,1543.9,1185.8z"/>
	<path d="M1098.9,1124.8c-4-6-5-12-2-15c2-3,7,2,10,11C1113.9,1137.8,1107.9,1140.8,1098.9,1124.8z"/>
	<path d="M1358.9,1125.8c-3-5-1-10,4-10c6,0,11,5,11,10c0,6-2,10-4,10C1366.9,1135.8,1361.9,1131.8,1358.9,1125.8z"/>
	<path d="M1370.9,1099.8c-10-13-13-24-8-24s13,5,16,10c3,6,25,11,48,12c41,1,41,1,7,5c-19,3-37,8-40,13
		C1390.9,1119.8,1380.9,1112.8,1370.9,1099.8z"/>
	<path d="M2868.9,1115.8c52-9,152-13,144-6c-2,2-47,6-99,9C2845.9,1122.8,2832.9,1121.8,2868.9,1115.8z"/>
</g>
</svg>
